<svg width="278" height="280" viewBox="0 0 278 280" fill="none" xmlns="http://www.w3.org/2000/svg">
<path d="M266.137 183.121C238.866 246.866 166.877 274.245 110.473 269.577C95.0727 268.302 64.0865 265.738 39.892 242.858C-6.57162 198.919 0.584262 107.074 45.0633 53.0002C50.7912 46.0367 90.4395 -0.618167 152.224 0.00620948C197.459 0.463426 229.209 26.0162 233.07 29.1995C237.947 33.221 248.704 42.7772 258.398 57.9376C281.177 93.5596 283.179 143.288 266.137 183.121Z" fill="url(#paint0_linear_2_394)"/>
<path d="M0 83.969V218.547C0 229.617 8.82213 238.671 19.8892 238.956C69.0434 240.223 212.518 243.297 259.31 242.607C267.352 242.489 273.867 236.053 274.099 228.013C275.001 196.749 276.466 121.569 271.044 86.6658C269.902 79.3156 263.697 73.8193 256.263 73.5815C215.078 72.2639 61.2767 68.0804 14.5069 69.1307C6.44084 69.3119 0 75.9009 0 83.969Z" fill="url(#paint1_linear_2_394)"/>
<path d="M8.44433 83.3139V211.172C8.44433 217.636 13.633 222.902 20.096 222.999L252.578 226.223C258.986 226.319 264.238 221.163 264.262 214.755L264.698 88.0394C264.715 83.4574 261.065 79.7029 256.484 79.5914L17.7883 74.1946C12.6649 74.07 8.44433 78.1892 8.44433 83.3139Z" fill="url(#paint2_linear_2_394)"/>
<path d="M185.667 269.546C185.667 269.546 186.29 273.077 186.596 276.572C186.716 277.938 185.663 279.124 184.293 279.181C179.638 279.375 169.682 279.752 166.109 279.593C165.572 279.569 165.221 279.019 165.42 278.519C165.586 278.101 165.907 277.763 166.317 277.574L182.763 270.016L185.667 269.546Z" fill="url(#paint3_linear_2_394)"/>
<path d="M186.178 267.472L185.677 271.695C185.677 271.695 182.796 273.036 180.828 271.526L182.021 266.819L186.178 267.472Z" fill="url(#paint4_linear_2_394)"/>
<path d="M185.801 188.07C186.018 189.173 186.963 243.108 181.198 267.279C181.104 267.673 181.304 268.079 181.679 268.233C182.563 268.594 184.297 269.117 186.374 269.187C187.018 269.209 187.595 268.791 187.776 268.173C189.424 262.565 197.321 234.468 198.351 207.628C199.502 177.636 198.351 206.606 198.351 206.606L197.676 188.067L185.801 188.07Z" fill="url(#paint5_linear_2_394)"/>
<path d="M204.585 271.388C204.585 271.388 205.578 273.171 206.539 277.907C206.713 278.763 206.115 279.581 205.246 279.667C203.71 279.818 201.343 280.012 199.448 279.999C198.574 279.993 197.892 279.233 197.998 278.365C198.208 276.636 198.862 273.8 200.882 271.589L204.585 271.388Z" fill="url(#paint6_linear_2_394)"/>
<path d="M205.457 265.956L204.286 272.343C204.286 272.343 203.129 273.204 200.838 272.58L201.397 265.708L205.457 265.956Z" fill="url(#paint7_linear_2_394)"/>
<path d="M208.62 189.725C213.336 218.182 207.598 260.059 205.662 268.255C205.544 268.756 205.139 269.141 204.63 269.225C203.766 269.368 202.344 269.485 200.942 269.078C200.459 268.938 200.12 268.502 200.1 267.999C199.84 261.373 200.308 220.693 195.914 204.616C195.691 203.801 195.194 203.091 194.506 202.601L185.978 196.539L185.324 186.74L208.62 189.725Z" fill="url(#paint8_linear_2_394)"/>
<path d="M180.828 136.82C180.828 136.82 202.49 131.421 217.639 139.444L208.62 189.725C208.62 189.725 194.272 190.882 185.324 188.035L180.828 136.82Z" fill="url(#paint9_linear_2_394)"/>
<path d="M205.122 121.755L206.78 136.023C206.886 136.225 206.834 136.474 206.653 136.613C205.543 137.466 201.47 140.064 195.704 137.524C195.103 137.259 194.644 136.749 194.464 136.118L196.809 123.753L205.122 121.755Z" fill="url(#paint10_linear_2_394)"/>
<path d="M191.826 114.317C191.826 114.317 189.716 124.627 191.384 128.05C193.052 131.472 198.845 129.485 203.109 125.05L203.856 114.369L191.826 114.317Z" fill="url(#paint11_linear_2_394)"/>
<path d="M201.49 120.39C201.255 120.359 201.103 120.127 201.172 119.899C201.38 119.208 201.743 117.816 201.665 116.713C201.665 116.713 202.356 115.917 199.125 116.084C195.894 116.25 191.062 116.455 189.359 114.164C187.699 111.931 188.267 104.918 193.612 108.798C193.816 108.946 194.105 108.865 194.196 108.631C194.587 107.619 195.749 105.416 198.368 105.772C200.82 106.106 201.531 107.621 201.737 108.429C201.797 108.667 202.061 108.788 202.28 108.676C203.313 108.145 205.887 107.192 207.907 109.525C209.571 111.448 209.284 112.898 208.868 113.688C208.732 113.944 208.914 114.247 209.203 114.25C209.988 114.259 211.096 114.595 211.5 116.308C212.058 118.676 209.392 119.238 208.619 119.35C208.492 119.369 208.382 119.447 208.327 119.562C207.898 120.453 205.913 124.286 202.917 125.56C202.658 125.67 202.371 125.466 202.384 125.185L202.577 120.887C202.586 120.688 202.441 120.515 202.243 120.489L201.49 120.39Z" fill="url(#paint12_linear_2_394)"/>
<path d="M201.114 121.102C201.114 121.102 203.804 117.795 204.625 119.671C205.445 121.547 202.419 123.388 200.579 123.14L201.114 121.102Z" fill="url(#paint13_linear_2_394)"/>
<path d="M221.601 167.044C221.601 167.044 220.124 185.925 207.695 186.74C207.695 186.74 202.367 186.251 200.055 188.067C197.742 189.883 198.863 192.681 198.863 192.681L208.891 191.459C208.891 191.459 223.233 193.847 231.856 169.841L221.601 167.044Z" fill="url(#paint14_linear_2_394)"/>
<path d="M217.639 139.444C217.639 139.444 234.652 149.565 231.856 169.841C231.856 169.841 225.778 172.475 221.359 168.944C221.359 168.944 217.915 155.771 210.435 155.115L217.639 139.444Z" fill="url(#paint15_linear_2_394)"/>
<path d="M169.525 146.699C169.525 146.699 161.354 150.497 151.799 140.359C145.268 133.43 141.273 137.678 140.01 140.475C138.747 143.272 141.768 143.039 142.821 143.039C143.875 143.039 144.005 139.996 145.863 140.411C147.72 140.825 147.174 140.27 147.29 142.135C147.407 143.999 157.392 165.054 169.745 154.8L169.525 146.699Z" fill="url(#paint16_linear_2_394)"/>
<path d="M132.183 148.068L153.775 146.707C155.744 146.583 157.471 148.008 157.723 149.964L162.558 187.516C162.846 189.754 161.103 191.737 158.846 191.737H130.672C128.534 191.737 126.83 189.949 126.933 187.813L128.68 151.623C128.772 149.718 130.28 148.188 132.183 148.068Z" fill="#91B3FA"/>
<path d="M135.366 151.883C134.994 151.883 134.684 151.589 134.668 151.213C134.648 150.731 134.268 139.388 142.251 138.141C143.959 137.875 145.474 138.275 146.755 139.334C150.641 142.546 150.97 150.81 150.982 151.16C150.995 151.546 150.693 151.869 150.307 151.883C149.924 151.889 149.598 151.594 149.584 151.208C149.581 151.129 149.265 143.221 145.863 140.411C144.891 139.608 143.779 139.319 142.467 139.522C135.703 140.579 136.061 151.049 136.065 151.155C136.081 151.541 135.782 151.866 135.396 151.883C135.386 151.883 135.376 151.883 135.366 151.883Z" fill="url(#paint17_linear_2_394)"/>
<path d="M180.828 136.819L167.647 146.699C167.647 146.699 167.414 154.101 169.162 157.601L183.845 153.993L180.828 136.819Z" fill="url(#paint18_linear_2_394)"/>
<path d="M234.967 115.375C234.967 115.375 238.627 117.155 239.3 119.201C239.84 120.842 243.888 121.054 244.288 124.281C244.494 125.948 245.727 127.282 247.387 127.537C251.521 128.17 257.892 130.317 258.911 137.494C259.689 142.973 256.896 145.05 253.965 145.769C251.813 146.297 250.382 148.391 250.817 150.564C251.235 152.649 250.612 155.059 247.001 156.964C238.908 161.235 230.826 146.848 230.826 146.848L229.17 121.727L234.967 115.375Z" fill="url(#paint19_linear_2_394)"/>
<path d="M268.232 272.89L268.756 277.195C268.855 278.012 269.498 278.658 270.315 278.751C271.696 278.908 273.91 279.07 276.077 278.841C277.029 278.741 277.646 277.777 277.356 276.866C276.828 275.204 275.862 272.709 274.468 271.241H269.693C268.809 271.241 268.125 272.013 268.232 272.89Z" fill="url(#paint20_linear_2_394)"/>
<path d="M230.826 222.457L230.02 227.199C230.02 227.199 232.72 254.542 233.2 265.479C233.275 267.193 232.832 268.888 231.932 270.349L227.238 277.972L239.167 270.932L239.404 269.477L237.452 266.792L240.009 236.161C240.16 234.362 239.788 232.557 238.94 230.963L236.472 226.328L230.826 222.457Z" fill="url(#paint21_linear_2_394)"/>
<path d="M226.452 279.076H230.259C230.971 279.076 231.643 278.749 232.078 278.184C233.265 276.642 235.724 273.633 236.899 273.555C238.482 273.449 238.279 279.076 238.279 279.076H239.167L240.29 272.084C240.573 270.325 239.698 268.582 238.119 267.758C238.119 267.758 237.757 270.434 235.795 271.617C233.833 272.801 227.812 277.039 227.812 277.039C227.812 277.039 227.074 276.934 226.264 277.08C225.063 277.297 225.231 279.076 226.452 279.076Z" fill="url(#paint22_linear_2_394)"/>
<path d="M247.166 224.709C247.166 224.709 262.98 254.707 265.493 261.556C268.007 268.404 268.888 274.118 268.922 274.659C268.974 275.505 270.026 276.315 272.924 276.315C274.42 276.315 275.153 275.716 275.511 275.135C275.817 274.64 275.833 274.021 275.575 273.499C274.661 271.647 271.758 265.731 270.682 263.048C269.399 259.844 266.638 245.325 265.123 240.277C263.609 235.229 261.897 229.753 255.303 224.709C255.303 224.709 250.776 220.275 247.166 224.709Z" fill="url(#paint23_linear_2_394)"/>
<path d="M237.175 175.557C233.096 158.271 243.43 148.495 243.43 148.495C236.909 142.236 225.029 139.388 225.029 139.388C225.029 139.388 213.692 147.676 215.037 154.163C215.826 157.965 223.006 176.937 223.006 176.937C223.006 176.937 229.645 180.079 237.175 175.557Z" fill="#BDD0FB"/>
<path d="M246.22 184.114C244.559 179.113 237.175 175.557 237.175 175.557C229.645 180.079 223.006 176.937 223.006 176.937C223.006 176.937 221.517 182.628 222.545 187.918C223.572 193.207 230.02 227.199 230.02 227.199C240.18 229.257 255.805 225.128 255.805 225.128C249.333 213.639 247.88 189.116 246.22 184.114Z" fill="#7D97F4"/>
<path d="M232.44 127.965L235.757 142.862C236.074 144.174 234.878 143.959 233.551 143.709C231.379 143.299 228.579 142.456 227.643 140.765C227.547 140.593 227.5 140.399 227.473 140.204L226.048 129.874C225.935 129.054 226.378 128.259 227.134 127.924L229.884 126.704C230.943 126.235 232.168 126.839 232.44 127.965Z" fill="url(#paint24_linear_2_394)"/>
<path d="M243.43 148.494C243.43 148.494 266.578 165.056 246.391 182.458C246.391 182.458 245.621 183.329 244.106 183.781C243.342 184.01 241.08 185.721 239.934 186.613C239.565 186.9 239.033 186.802 238.785 186.406C238.591 186.096 238.568 185.708 238.724 185.378L241.59 179.318C242.386 178.575 243.604 178.522 244.461 179.194C245.008 179.622 245.808 179.442 246.114 178.819C247.675 175.641 250.622 166.293 238.561 155.73C238.107 155.333 237.993 154.676 238.271 154.142C239.119 152.514 241.057 149.281 243.43 148.494Z" fill="url(#paint25_linear_2_394)"/>
<path d="M226.088 114.384C226.088 114.384 222.557 116.774 221.04 122.861C219.522 128.948 221.988 131.131 224.515 130.997C227.043 130.863 230.707 130.082 233.882 125.715C237.057 121.349 230.714 111.464 226.088 114.384Z" fill="url(#paint26_linear_2_394)"/>
<path d="M230.68 123.26C230.68 123.26 231.974 114.539 224.733 115.873L223.269 117.397C223.269 117.397 219.724 113.405 223.647 110.388C227.569 107.371 233.012 108.143 236.023 113.637C239.035 119.13 240.128 122.989 237.604 126.403C235.079 129.816 233.181 126.889 233.181 126.889C233.181 126.889 234.339 123.934 233.378 122.667C232.418 121.399 231.178 123.404 231.178 123.404L230.68 123.26Z" fill="url(#paint27_linear_2_394)"/>
<path d="M231.67 124.007C231.67 124.007 232.309 119.52 234.601 120.803C236.892 122.086 233.775 124.994 232.525 125.984L231.67 124.007Z" fill="url(#paint28_linear_2_394)"/>
<path d="M82.2954 73.608C85.7303 66.9356 92.1194 62.2316 99.5404 61.3913L100.048 29.2638C100.052 28.9894 99.8295 28.7633 99.5551 28.7664C78.624 28.9931 60.1548 42.0204 51.5352 61.3164C51.4098 61.5971 51.5484 61.9263 51.8359 62.0356L82.2954 73.608Z" fill="#91B3FA"/>
<path d="M123.655 89.0003C123.226 88.9887 122.841 89.2623 122.713 89.6725C122.353 90.8212 121.696 93.0251 121.589 93.3038C121.066 94.6596 120.453 95.982 119.735 97.246C118.403 99.5901 116.701 101.739 114.6 103.44C109.276 107.751 101.622 108.552 95.2382 106.418C95.0562 106.357 94.8759 106.292 94.6962 106.225C94.3636 106.1 93.9903 106.238 93.8197 106.55L77.7226 135.906C85.5391 139.825 92.8948 140.85 102.123 140.259C128.935 138.541 149.99 116.77 152.326 89.7731L123.655 89.0003Z" fill="url(#paint29_linear_2_394)"/>
<path d="M123.655 89.0002C121.91 99.713 113.993 108.084 103.234 108.449C100.208 108.552 96.5967 107.849 93.9418 106.773C93.665 106.661 93.3478 106.774 93.1976 107.033L76.6518 135.496C84.4683 139.416 93.2949 141.334 102.523 140.743C129.336 139.025 150.39 116.593 152.726 89.5963L123.655 89.0002Z" fill="#91B3FA"/>
<path d="M73.2032 131.002L89.2236 102.268C89.3371 102.064 89.2889 101.81 89.1107 101.66C84.1787 97.5067 80.2356 91.9378 80.2356 84.7164C80.2356 82.9353 79.4459 80.3429 79.8077 78.6718L49.6797 67.8986C48.0072 73.3387 47.1043 79.1288 47.1043 85.1282C47.1043 104.523 57.4094 121.58 71.5587 131.385C72.1116 131.769 72.8755 131.59 73.2032 131.002Z" fill="url(#paint30_linear_2_394)"/>
<path d="M71.6012 130.186L88.2032 101.807C88.4141 101.446 88.3416 100.987 88.0279 100.711C83.2655 96.5222 80.2355 90.2258 80.2355 83.1219C80.2355 81.3408 80.4278 79.6044 80.7896 77.9333L50.1307 66.4728C49.8865 66.3815 49.6143 66.5151 49.5398 66.765C47.9569 72.0709 47.1041 77.7034 47.1041 83.5337C47.1042 103.4 56.9201 120.506 71.6012 130.186Z" fill="#BDD0FB"/>
<path d="M105.414 61.5439C114.917 63.1333 122.286 71.1351 123.534 81.1344C123.601 81.6692 124.043 82.0781 124.581 82.0961L170.543 83.6364C170.686 83.4979 170.761 83.4249 170.904 83.2864C170.764 44.8366 143.193 11.8953 106.262 7.53515L105.414 61.5439Z" fill="url(#paint31_linear_2_394)"/>
<path d="M172.914 55.989C180.259 55.989 186.214 50.0343 186.214 42.6887C186.214 35.3431 180.259 29.3884 172.914 29.3884C165.568 29.3884 159.614 35.3431 159.614 42.6887C159.614 50.0343 165.568 55.989 172.914 55.989Z" fill="url(#paint32_linear_2_394)"/>
<path d="M172.914 55.5469C180.015 55.5469 185.772 49.7901 185.772 42.6888C185.772 35.5875 180.015 29.8308 172.914 29.8308C165.813 29.8308 160.056 35.5875 160.056 42.6888C160.056 49.7901 165.813 55.5469 172.914 55.5469Z" fill="url(#paint33_linear_2_394)"/>
<path opacity="0.78" d="M162.153 38.1328C162.088 38.1351 162.022 38.1225 161.959 38.0931C161.743 37.9932 161.65 37.7375 161.75 37.5223C163.716 33.2818 167.837 30.5516 172.505 30.3962C173.25 30.3715 173.998 30.4137 174.729 30.5218C174.963 30.5564 175.126 30.7749 175.091 31.0097C175.056 31.2449 174.839 31.4088 174.603 31.3721C173.923 31.2721 173.227 31.2327 172.533 31.2557C168.192 31.4002 164.359 33.9398 162.53 37.8837C162.459 38.0361 162.311 38.1276 162.153 38.1328Z" fill="white"/>
<path opacity="0.78" d="M180.896 50.6556C185.146 46.4057 185.146 39.5152 180.896 35.2652C176.646 31.0153 169.756 31.0153 165.506 35.2652C161.256 39.5152 161.256 46.4057 165.506 50.6556C169.756 54.9055 176.646 54.9055 180.896 50.6556Z" fill="white"/>
<path d="M172.405 51.0807L172.365 49.8975C171.13 49.8892 169.9 49.6385 169.021 49.2881C168.707 49.1629 168.538 48.8208 168.616 48.4921L168.88 47.3798C168.977 46.9718 169.409 46.748 169.801 46.8971C170.673 47.2289 171.744 47.4786 172.888 47.4405C174.077 47.401 174.949 46.9687 174.922 46.1429C174.897 45.3979 174.198 44.9777 172.532 44.5896C170.154 44.0236 168.428 43.0528 168.359 40.9784C168.297 39.1055 169.619 37.6302 171.982 37.1685L171.943 35.985C171.93 35.6042 172.229 35.2853 172.609 35.2725L173.305 35.2494C173.685 35.2367 174.005 35.5352 174.017 35.9159L174.053 36.9784C175.195 36.9861 176.033 37.1536 176.7 37.3634C177.042 37.4709 177.238 37.8287 177.156 38.1774L176.914 39.206C176.82 39.6026 176.407 39.8318 176.022 39.7005C175.407 39.4911 174.541 39.2806 173.425 39.3177C172.015 39.3646 171.632 39.962 171.649 40.4856C171.671 41.13 172.531 41.5449 174.383 42.0479C177.027 42.7461 178.15 43.7974 178.215 45.7509C178.275 47.5432 177 49.1985 174.435 49.6871L174.479 51.0114C174.492 51.3922 174.194 51.7112 173.813 51.7238L173.117 51.747C172.736 51.7599 172.417 51.4616 172.405 51.0807Z" fill="url(#paint34_linear_2_394)"/>
<path d="M153.173 76.4065C159.209 76.4065 164.103 71.5128 164.103 65.4761C164.103 59.4393 159.209 54.5456 153.173 54.5456C147.136 54.5456 142.242 59.4393 142.242 65.4761C142.242 71.5128 147.136 76.4065 153.173 76.4065Z" fill="url(#paint35_linear_2_394)"/>
<path d="M153.173 76.0429C159.009 76.0429 163.74 71.3119 163.74 65.4759C163.74 59.6399 159.009 54.9089 153.173 54.9089C147.337 54.9089 142.606 59.6399 142.606 65.4759C142.606 71.3119 147.337 76.0429 153.173 76.0429Z" fill="url(#paint36_linear_2_394)"/>
<path opacity="0.78" d="M144.329 61.7318C144.276 61.7336 144.221 61.7233 144.169 61.6992C143.992 61.617 143.915 61.4069 143.998 61.2301C145.613 57.7452 149 55.5014 152.836 55.3738C153.449 55.3534 154.064 55.3881 154.664 55.4769C154.857 55.5054 154.99 55.685 154.962 55.878C154.933 56.0712 154.755 56.2059 154.56 56.1758C154.002 56.0935 153.43 56.0612 152.86 56.0801C149.292 56.1988 146.142 58.2859 144.639 61.5272C144.581 61.6523 144.459 61.7275 144.329 61.7318Z" fill="white"/>
<path opacity="0.78" d="M159.732 72.0231C163.225 68.5304 163.225 62.8677 159.732 59.375C156.24 55.8823 150.577 55.8824 147.084 59.3751C143.592 62.8678 143.592 68.5305 147.084 72.0232C150.577 75.5159 156.24 75.5158 159.732 72.0231Z" fill="white"/>
<path d="M152.754 72.3728L152.722 71.4003C151.707 71.3935 150.696 71.1876 149.974 70.8995C149.716 70.7967 149.577 70.5155 149.641 70.2453L149.857 69.3311C149.937 68.9958 150.293 68.8119 150.615 68.9345C151.331 69.2071 152.211 69.4124 153.152 69.3811C154.128 69.3485 154.846 68.9934 154.823 68.3147C154.803 67.7025 154.228 67.3571 152.859 67.0382C150.905 66.573 149.486 65.7752 149.43 64.0705C149.378 62.5313 150.465 61.3188 152.407 60.9394L152.375 59.9669C152.364 59.654 152.61 59.3918 152.923 59.3813L153.494 59.3623C153.807 59.3519 154.069 59.5972 154.079 59.9101L154.109 60.7833C155.048 60.7897 155.736 60.9273 156.284 61.0997C156.565 61.1881 156.727 61.4821 156.659 61.7687L156.46 62.614C156.383 62.9399 156.044 63.1284 155.727 63.0205C155.222 62.8483 154.51 62.6754 153.593 62.7059C152.434 62.7445 152.119 63.2354 152.134 63.6658C152.151 64.1953 152.858 64.5363 154.38 64.9496C156.553 65.5234 157.476 66.3873 157.53 67.9927C157.579 69.4658 156.531 70.8261 154.423 71.2276L154.459 72.316C154.47 72.629 154.225 72.891 153.912 72.9014L153.34 72.9204C153.027 72.931 152.765 72.6858 152.754 72.3728Z" fill="url(#paint37_linear_2_394)"/>
<path d="M204.979 41.5232C214.554 41.5232 222.316 33.761 222.316 24.1858C222.316 14.6106 214.554 6.84838 204.979 6.84838C195.404 6.84838 187.642 14.6106 187.642 24.1858C187.642 33.761 195.404 41.5232 204.979 41.5232Z" fill="url(#paint38_linear_2_394)"/>
<path d="M204.979 40.9467C214.236 40.9467 221.74 33.4426 221.74 24.1858C221.74 14.9289 214.236 7.4248 204.979 7.4248C195.722 7.4248 188.218 14.9289 188.218 24.1858C188.218 33.4426 195.722 40.9467 204.979 40.9467Z" fill="url(#paint39_linear_2_394)"/>
<path opacity="0.78" d="M190.945 17.9994C190.897 18.0011 190.849 17.992 190.803 17.9705C190.646 17.8978 190.578 17.7117 190.651 17.5552C193.174 12.1129 198.463 8.60862 204.454 8.40922C205.41 8.37738 206.37 8.43166 207.309 8.57083C207.48 8.59599 207.598 8.75507 207.572 8.92617C207.547 9.09697 207.389 9.21602 207.217 9.18964C206.316 9.05634 205.393 9.00419 204.475 9.03471C198.721 9.22613 193.642 12.5918 191.218 17.8182C191.167 17.9291 191.059 17.9956 190.945 17.9994Z" fill="white"/>
<path opacity="0.78" d="M219.064 28.185C221.082 20.6143 216.58 12.8416 209.009 10.8241C201.438 8.80666 193.666 13.3085 191.648 20.8792C189.631 28.4499 194.133 36.2226 201.703 38.2401C209.274 40.2575 217.047 35.7557 219.064 28.185Z" fill="white"/>
<path d="M204.316 35.1254L204.265 33.5828C202.654 33.5719 201.051 33.2453 199.905 32.7884C199.496 32.6253 199.275 32.1794 199.377 31.7507L199.721 30.3008C199.847 29.7689 200.411 29.4773 200.922 29.6717C202.058 30.1042 203.454 30.4298 204.946 30.3802C206.495 30.3286 207.633 29.7651 207.597 28.6887C207.565 27.7175 206.653 27.1697 204.481 26.6639C201.382 25.926 199.132 24.6606 199.042 21.9567C198.961 19.5153 200.684 17.5921 203.765 16.9903L203.714 15.4477C203.697 14.9512 204.086 14.5356 204.582 14.519L205.489 14.4888C205.985 14.4723 206.401 14.8612 206.417 15.3576L206.463 16.7427C207.953 16.7527 209.045 16.9711 209.915 17.2446C210.36 17.3847 210.617 17.8511 210.509 18.3057L210.193 19.6465C210.071 20.1635 209.533 20.4624 209.03 20.2912C208.229 20.0182 207.1 19.7438 205.645 19.7922C203.808 19.8534 203.308 20.6321 203.331 21.3147C203.359 22.1547 204.481 22.6955 206.894 23.3511C210.34 24.2613 211.805 25.6316 211.89 28.1781C211.968 30.5144 210.305 32.6721 206.962 33.3091L207.02 35.0354C207.036 35.5318 206.647 35.9476 206.151 35.9641L205.244 35.9942C204.748 36.0108 204.332 35.6217 204.316 35.1254Z" fill="url(#paint40_linear_2_394)"/>
<path d="M43.3982 113.936C43.3982 113.936 39.7369 115.717 39.0637 117.763C38.5235 119.405 34.4749 119.616 34.075 122.845C33.8685 124.512 32.6351 125.846 30.9749 126.101C26.84 126.735 20.4677 128.882 19.4481 136.061C18.6699 141.541 21.4634 143.618 24.3951 144.338C26.5483 144.866 27.9792 146.96 27.5437 149.134C27.126 151.219 27.749 153.63 31.3612 155.536C39.4561 159.807 47.5401 145.417 47.5401 145.417L49.1968 120.29L43.3982 113.936Z" fill="url(#paint41_linear_2_394)"/>
<path d="M87.4446 107.98C87.4446 107.98 71.2821 133.544 52.0631 138.482C52.0631 138.482 55.8079 149.148 58.6985 150.369C58.6985 150.369 82.3433 130.64 88.4196 111.612L87.4446 107.98Z" fill="url(#paint42_linear_2_394)"/>
<path d="M10.125 271.49L9.60122 275.796C9.50188 276.613 8.8587 277.259 8.04099 277.353C6.66055 277.51 4.44521 277.672 2.27778 277.443C1.32636 277.342 0.708753 276.379 0.998606 275.467C1.52697 273.805 2.49366 271.309 3.88734 269.841H8.66425C9.54746 269.841 10.2317 270.613 10.125 271.49Z" fill="url(#paint43_linear_2_394)"/>
<path d="M47.5399 221.045L48.3462 225.788C48.3462 225.788 45.6462 253.137 45.1659 264.077C45.0906 265.792 45.5343 267.487 46.4346 268.949L51.1296 276.573L39.1974 269.532L38.9599 268.076L40.9131 265.39L38.3546 234.752C38.2043 232.952 38.5757 231.147 39.4244 229.553L41.8925 224.916L47.5399 221.045Z" fill="url(#paint44_linear_2_394)"/>
<path d="M51.9153 277.678H48.1075C47.3948 277.678 46.7226 277.351 46.2879 276.786C45.1008 275.243 42.6414 272.234 41.4654 272.155C39.8823 272.05 40.0849 277.678 40.0849 277.678H39.1974L38.0734 270.684C37.7906 268.925 38.6656 267.181 40.2458 266.357C40.2458 266.357 40.6077 269.033 42.5699 270.217C44.5322 271.401 50.5551 275.64 50.5551 275.64C50.5551 275.64 51.2927 275.535 52.1027 275.681C53.304 275.899 53.1362 277.678 51.9153 277.678Z" fill="url(#paint45_linear_2_394)"/>
<path d="M31.1968 223.298C31.1968 223.298 15.379 253.302 12.8645 260.153C10.3501 267.004 9.46923 272.719 9.43548 273.26C9.38282 274.105 8.33104 274.916 5.4318 274.916C3.93554 274.916 3.20282 274.317 2.84404 273.736C2.53792 273.241 2.52215 272.621 2.78007 272.099C3.69501 270.247 6.5987 264.33 7.67413 261.646C8.95815 258.441 11.7199 243.919 13.2347 238.869C14.7493 233.82 16.4615 228.343 23.0577 223.298C23.0577 223.298 27.5856 218.863 31.1968 223.298Z" fill="url(#paint46_linear_2_394)"/>
<path d="M41.1891 174.133C45.2694 156.843 34.9328 147.065 34.9328 147.065C41.455 140.804 53.3383 137.955 53.3383 137.955C53.3383 137.955 64.6776 146.245 63.3324 152.734C62.544 156.537 55.3619 175.514 55.3619 175.514C55.3619 175.514 48.721 178.657 41.1891 174.133Z" fill="url(#paint47_linear_2_394)"/>
<path d="M32.1427 182.693C33.8032 177.69 41.1893 174.133 41.1893 174.133C48.721 178.657 55.3622 175.514 55.3622 175.514C55.3622 175.514 56.8516 181.207 55.8235 186.497C54.7956 191.788 48.3463 225.788 48.3463 225.788C38.1843 227.847 22.5554 223.716 22.5554 223.716C29.0282 212.224 30.4821 187.695 32.1427 182.693Z" fill="url(#paint48_linear_2_394)"/>
<path d="M45.9254 126.529L42.6081 141.43C42.2904 142.743 43.4869 142.528 44.8139 142.278C46.987 141.868 49.7879 141.024 50.7242 139.333C50.8195 139.161 50.8671 138.967 50.8939 138.772L52.3192 128.439C52.4322 127.619 51.9891 126.824 51.2326 126.488L48.4824 125.269C47.4234 124.799 46.1978 125.404 45.9254 126.529Z" fill="url(#paint49_linear_2_394)"/>
<path d="M34.9329 147.064C34.9329 147.064 2.91328 178.761 49.3497 166.109C49.3497 166.109 49.8793 162.102 49.1881 162.171C34.1297 163.673 27.8314 167.121 40.0723 155.251C40.5051 154.831 40.3713 153.247 40.093 152.713C39.2454 151.084 37.3069 147.851 34.9329 147.064Z" fill="url(#paint50_linear_2_394)"/>
<path d="M52.2794 112.946C52.2794 112.946 55.8111 115.336 57.3287 121.424C58.8463 127.512 56.38 129.696 53.8521 129.562C51.3241 129.429 47.6587 128.647 44.4828 124.279C41.307 119.912 47.6515 110.024 52.2794 112.946Z" fill="url(#paint51_linear_2_394)"/>
<path d="M47.6855 121.824C47.6855 121.824 46.3915 113.1 53.6345 114.434L55.099 115.959C55.099 115.959 58.6442 111.967 54.7209 108.949C50.7976 105.931 45.3533 106.703 42.3413 112.198C39.3293 117.692 38.2361 121.553 40.7607 124.967C43.2854 128.381 45.1844 125.453 45.1844 125.453C45.1844 125.453 44.0266 122.498 44.9872 121.23C45.9478 119.962 47.1874 121.968 47.1874 121.968L47.6855 121.824Z" fill="url(#paint52_linear_2_394)"/>
<path d="M46.6955 122.571C46.6955 122.571 46.0566 118.083 43.7643 119.366C41.4721 120.649 44.5904 123.558 45.8408 124.548L46.6955 122.571Z" fill="url(#paint53_linear_2_394)"/>
<path d="M87.3334 113.243C87.3823 113.77 85.4214 114.134 84.7973 111.886C84.9688 110.91 85.2735 106.636 86.0219 105.972C90.0077 102.436 97.1151 98.4572 97.1151 98.4572C97.91 99.6708 96.8675 100.47 96.8675 100.47L93.3197 102.864C93.6898 104.09 94.2299 105.174 94.2909 106.573C94.3372 107.633 93.9457 108.671 93.2423 109.475C92.5362 110.281 91.5856 111.323 90.7288 112.114C89.107 113.611 87.3334 113.243 87.3334 113.243Z" fill="url(#paint54_linear_2_394)"/>
<path d="M89.2606 111.5L88.7184 111.277C88.7904 111.102 90.4931 106.965 91.3164 106.104C91.6294 105.777 91.7804 105.498 91.7665 105.272C91.7595 105.15 91.6991 105.03 91.5845 104.907L88.7137 106.442L87.4457 108.428L86.9515 108.112L88.3016 105.997L91.6642 104.199L91.816 104.323C92.1561 104.601 92.3319 104.899 92.352 105.236C92.3768 105.638 92.177 106.054 91.7409 106.51C91.1205 107.158 89.74 110.332 89.2606 111.5Z" fill="url(#paint55_linear_2_394)"/>
<path d="M47.4776 172.647L55.2267 145.585C55.3146 145.278 55.5768 145.054 55.8941 145.017C57.2981 144.853 61.3663 144.393 66.0636 143.996C71.7215 143.517 78.2921 143.13 82.2185 143.46C82.7767 143.506 83.114 144.097 82.8658 144.599C80.633 149.116 71.4489 167.491 66.8497 173.51C66.6973 173.71 66.4617 173.826 66.2108 173.824L48.2315 173.657C47.7082 173.652 47.3335 173.15 47.4776 172.647Z" fill="url(#paint56_linear_2_394)"/>
<path d="M49.3497 166.108C49.3497 166.108 48.2703 161.67 48.7058 160.095C49.1412 158.52 49.9848 156.496 52.797 156.945C55.6091 157.395 58.9262 158.58 58.9262 158.58C58.9262 158.58 58.7587 160.631 56.6214 159.969L57.9467 160.995C57.9467 160.995 57.7573 162.637 55.952 161.76L57.1847 163.12C57.1847 163.12 56.4094 164.469 55.0812 163.604C53.753 162.738 53.1163 166.643 49.3497 166.108Z" fill="url(#paint57_linear_2_394)"/>
<defs>
<linearGradient id="paint0_linear_2_394" x1="293.796" y1="305.2" x2="95.3228" y2="90.9753" gradientUnits="userSpaceOnUse">
<stop stop-color="#DAE3FE"/>
<stop offset="1" stop-color="#E9EFFD"/>
</linearGradient>
<linearGradient id="paint1_linear_2_394" x1="265.173" y1="-8.79487" x2="115.128" y2="183.975" gradientUnits="userSpaceOnUse">
<stop stop-color="#09005D"/>
<stop offset="1" stop-color="#1A0F91"/>
</linearGradient>
<linearGradient id="paint2_linear_2_394" x1="56.3147" y1="224.759" x2="293.335" y2="1.9807" gradientUnits="userSpaceOnUse">
<stop stop-color="#FE7062"/>
<stop offset="1" stop-color="#FF928E"/>
</linearGradient>
<linearGradient id="paint3_linear_2_394" x1="166.63" y1="264.666" x2="226.855" y2="330.174" gradientUnits="userSpaceOnUse">
<stop stop-color="#09005D"/>
<stop offset="1" stop-color="#1A0F91"/>
</linearGradient>
<linearGradient id="paint4_linear_2_394" x1="186.178" y1="269.532" x2="180.828" y2="269.532" gradientUnits="userSpaceOnUse">
<stop stop-color="#FEBBBA"/>
<stop offset="1" stop-color="#FF928E"/>
</linearGradient>
<linearGradient id="paint5_linear_2_394" x1="191.845" y1="201.985" x2="182.181" y2="289.978" gradientUnits="userSpaceOnUse">
<stop stop-color="#09005D"/>
<stop offset="1" stop-color="#1A0F91"/>
</linearGradient>
<linearGradient id="paint6_linear_2_394" x1="180.14" y1="252.245" x2="240.365" y2="317.753" gradientUnits="userSpaceOnUse">
<stop stop-color="#09005D"/>
<stop offset="1" stop-color="#1A0F91"/>
</linearGradient>
<linearGradient id="paint7_linear_2_394" x1="205.457" y1="269.257" x2="200.838" y2="269.257" gradientUnits="userSpaceOnUse">
<stop stop-color="#FEBBBA"/>
<stop offset="1" stop-color="#FF928E"/>
</linearGradient>
<linearGradient id="paint8_linear_2_394" x1="198.582" y1="202.725" x2="188.918" y2="290.718" gradientUnits="userSpaceOnUse">
<stop stop-color="#09005D"/>
<stop offset="1" stop-color="#1A0F91"/>
</linearGradient>
<linearGradient id="paint9_linear_2_394" x1="184.99" y1="123.67" x2="226.022" y2="223.366" gradientUnits="userSpaceOnUse">
<stop stop-color="#4042E2"/>
<stop offset="1" stop-color="#4F52FF"/>
</linearGradient>
<linearGradient id="paint10_linear_2_394" x1="206.327" y1="129.716" x2="193.782" y2="131.614" gradientUnits="userSpaceOnUse">
<stop stop-color="#FEBBBA"/>
<stop offset="1" stop-color="#FF928E"/>
</linearGradient>
<linearGradient id="paint11_linear_2_394" x1="192.34" y1="125.337" x2="204.171" y2="112.293" gradientUnits="userSpaceOnUse">
<stop stop-color="#FEBBBA"/>
<stop offset="1" stop-color="#FF928E"/>
</linearGradient>
<linearGradient id="paint12_linear_2_394" x1="209.075" y1="100.773" x2="194.777" y2="120.976" gradientUnits="userSpaceOnUse">
<stop stop-color="#09005D"/>
<stop offset="1" stop-color="#1A0F91"/>
</linearGradient>
<linearGradient id="paint13_linear_2_394" x1="197.094" y1="127.502" x2="207.739" y2="115.766" gradientUnits="userSpaceOnUse">
<stop stop-color="#FEBBBA"/>
<stop offset="1" stop-color="#FF928E"/>
</linearGradient>
<linearGradient id="paint14_linear_2_394" x1="214.985" y1="190.354" x2="215.735" y2="159.164" gradientUnits="userSpaceOnUse">
<stop stop-color="#FEBBBA"/>
<stop offset="1" stop-color="#FF928E"/>
</linearGradient>
<linearGradient id="paint15_linear_2_394" x1="204.193" y1="115.767" x2="245.225" y2="215.463" gradientUnits="userSpaceOnUse">
<stop stop-color="#4042E2"/>
<stop offset="1" stop-color="#4F52FF"/>
</linearGradient>
<linearGradient id="paint16_linear_2_394" x1="154.556" y1="155.27" x2="155.145" y2="130.756" gradientUnits="userSpaceOnUse">
<stop stop-color="#FEBBBA"/>
<stop offset="1" stop-color="#FF928E"/>
</linearGradient>
<linearGradient id="paint17_linear_2_394" x1="140.143" y1="128.125" x2="144.804" y2="167.745" gradientUnits="userSpaceOnUse">
<stop stop-color="#4042E2"/>
<stop offset="1" stop-color="#4F52FF"/>
</linearGradient>
<linearGradient id="paint18_linear_2_394" x1="168.149" y1="130.601" x2="209.18" y2="230.297" gradientUnits="userSpaceOnUse">
<stop stop-color="#4042E2"/>
<stop offset="1" stop-color="#4F52FF"/>
</linearGradient>
<linearGradient id="paint19_linear_2_394" x1="228.529" y1="100.724" x2="239.387" y2="127.961" gradientUnits="userSpaceOnUse">
<stop stop-color="#09005D"/>
<stop offset="1" stop-color="#1A0F91"/>
</linearGradient>
<linearGradient id="paint20_linear_2_394" x1="268.221" y1="275.098" x2="277.428" y2="275.098" gradientUnits="userSpaceOnUse">
<stop stop-color="#4042E2"/>
<stop offset="1" stop-color="#4F52FF"/>
</linearGradient>
<linearGradient id="paint21_linear_2_394" x1="229.316" y1="311.406" x2="242.566" y2="156.549" gradientUnits="userSpaceOnUse">
<stop stop-color="#C4421B"/>
<stop offset="1" stop-color="#5C0E16"/>
</linearGradient>
<linearGradient id="paint22_linear_2_394" x1="225.445" y1="273.417" x2="240.343" y2="273.417" gradientUnits="userSpaceOnUse">
<stop stop-color="#4042E2"/>
<stop offset="1" stop-color="#4F52FF"/>
</linearGradient>
<linearGradient id="paint23_linear_2_394" x1="255.969" y1="313.71" x2="269.222" y2="158.813" gradientUnits="userSpaceOnUse">
<stop stop-color="#C4421B"/>
<stop offset="1" stop-color="#5C0E16"/>
</linearGradient>
<linearGradient id="paint24_linear_2_394" x1="227.863" y1="158.763" x2="230.352" y2="140.555" gradientUnits="userSpaceOnUse">
<stop stop-color="#C4421B"/>
<stop offset="1" stop-color="#5C0E16"/>
</linearGradient>
<linearGradient id="paint25_linear_2_394" x1="238.121" y1="167.636" x2="254.655" y2="167.636" gradientUnits="userSpaceOnUse">
<stop stop-color="#C4421B"/>
<stop offset="1" stop-color="#5C0E16"/>
</linearGradient>
<linearGradient id="paint26_linear_2_394" x1="223.431" y1="136.835" x2="237.224" y2="94.7052" gradientUnits="userSpaceOnUse">
<stop stop-color="#C4421B"/>
<stop offset="1" stop-color="#5C0E16"/>
</linearGradient>
<linearGradient id="paint27_linear_2_394" x1="221.472" y1="102.914" x2="237.416" y2="127.522" gradientUnits="userSpaceOnUse">
<stop stop-color="#09005D"/>
<stop offset="1" stop-color="#1A0F91"/>
</linearGradient>
<linearGradient id="paint28_linear_2_394" x1="228.47" y1="138.485" x2="242.263" y2="96.3551" gradientUnits="userSpaceOnUse">
<stop stop-color="#C4421B"/>
<stop offset="1" stop-color="#5C0E16"/>
</linearGradient>
<linearGradient id="paint29_linear_2_394" x1="105.69" y1="97.1297" x2="142.765" y2="159.525" gradientUnits="userSpaceOnUse">
<stop stop-color="#FE7062"/>
<stop offset="1" stop-color="#FF928E"/>
</linearGradient>
<linearGradient id="paint30_linear_2_394" x1="83.5399" y1="114.863" x2="42.3955" y2="69.1975" gradientUnits="userSpaceOnUse">
<stop stop-color="#FE7062"/>
<stop offset="1" stop-color="#FF928E"/>
</linearGradient>
<linearGradient id="paint31_linear_2_394" x1="105.414" y1="45.5858" x2="170.904" y2="45.5858" gradientUnits="userSpaceOnUse">
<stop stop-color="#4042E2"/>
<stop offset="1" stop-color="#4F52FF"/>
</linearGradient>
<linearGradient id="paint32_linear_2_394" x1="155.425" y1="64.4066" x2="172.567" y2="43.1187" gradientUnits="userSpaceOnUse">
<stop stop-color="#FE7062"/>
<stop offset="1" stop-color="#FF928E"/>
</linearGradient>
<linearGradient id="paint33_linear_2_394" x1="182.141" y1="27.6896" x2="132.063" y2="109.092" gradientUnits="userSpaceOnUse">
<stop stop-color="#FE7062"/>
<stop offset="1" stop-color="#FF928E"/>
</linearGradient>
<linearGradient id="paint34_linear_2_394" x1="180.644" y1="30.0242" x2="154.136" y2="78.0877" gradientUnits="userSpaceOnUse">
<stop stop-color="#FE7062"/>
<stop offset="1" stop-color="#FF928E"/>
</linearGradient>
<linearGradient id="paint35_linear_2_394" x1="138.8" y1="83.3242" x2="152.888" y2="65.8294" gradientUnits="userSpaceOnUse">
<stop stop-color="#FE7062"/>
<stop offset="1" stop-color="#FF928E"/>
</linearGradient>
<linearGradient id="paint36_linear_2_394" x1="160.756" y1="53.1492" x2="119.601" y2="120.047" gradientUnits="userSpaceOnUse">
<stop stop-color="#FE7062"/>
<stop offset="1" stop-color="#FF928E"/>
</linearGradient>
<linearGradient id="paint37_linear_2_394" x1="159.526" y1="55.0682" x2="137.741" y2="94.5677" gradientUnits="userSpaceOnUse">
<stop stop-color="#FE7062"/>
<stop offset="1" stop-color="#FF928E"/>
</linearGradient>
<linearGradient id="paint38_linear_2_394" x1="182.182" y1="52.4959" x2="204.528" y2="24.7463" gradientUnits="userSpaceOnUse">
<stop stop-color="#FE7062"/>
<stop offset="1" stop-color="#FF928E"/>
</linearGradient>
<linearGradient id="paint39_linear_2_394" x1="217.008" y1="4.63355" x2="151.729" y2="110.745" gradientUnits="userSpaceOnUse">
<stop stop-color="#FE7062"/>
<stop offset="1" stop-color="#FF928E"/>
</linearGradient>
<linearGradient id="paint40_linear_2_394" x1="215.056" y1="7.67727" x2="180.502" y2="70.33" gradientUnits="userSpaceOnUse">
<stop stop-color="#FE7062"/>
<stop offset="1" stop-color="#FF928E"/>
</linearGradient>
<linearGradient id="paint41_linear_2_394" x1="49.838" y1="99.2815" x2="38.9774" y2="126.525" gradientUnits="userSpaceOnUse">
<stop stop-color="#09005D"/>
<stop offset="1" stop-color="#1A0F91"/>
</linearGradient>
<linearGradient id="paint42_linear_2_394" x1="75.3754" y1="120.044" x2="46.1467" y2="160.447" gradientUnits="userSpaceOnUse">
<stop stop-color="#FEBBBA"/>
<stop offset="1" stop-color="#FF928E"/>
</linearGradient>
<linearGradient id="paint43_linear_2_394" x1="8.37363" y1="294.771" x2="-3.15585" y2="208.978" gradientUnits="userSpaceOnUse">
<stop stop-color="#4042E2"/>
<stop offset="1" stop-color="#4F52FF"/>
</linearGradient>
<linearGradient id="paint44_linear_2_394" x1="49.0505" y1="310.016" x2="35.7975" y2="155.121" gradientUnits="userSpaceOnUse">
<stop stop-color="#FEBBBA"/>
<stop offset="1" stop-color="#FF928E"/>
</linearGradient>
<linearGradient id="paint45_linear_2_394" x1="47.6286" y1="289.495" x2="36.0991" y2="203.703" gradientUnits="userSpaceOnUse">
<stop stop-color="#4042E2"/>
<stop offset="1" stop-color="#4F52FF"/>
</linearGradient>
<linearGradient id="paint46_linear_2_394" x1="22.3913" y1="312.32" x2="9.13477" y2="157.385" gradientUnits="userSpaceOnUse">
<stop stop-color="#FEBBBA"/>
<stop offset="1" stop-color="#FF928E"/>
</linearGradient>
<linearGradient id="paint47_linear_2_394" x1="48.7231" y1="153.814" x2="42.0963" y2="215.296" gradientUnits="userSpaceOnUse">
<stop stop-color="#4042E2"/>
<stop offset="1" stop-color="#4F52FF"/>
</linearGradient>
<linearGradient id="paint48_linear_2_394" x1="22.5554" y1="200.248" x2="56.1853" y2="200.248" gradientUnits="userSpaceOnUse">
<stop stop-color="#4042E2"/>
<stop offset="1" stop-color="#4F52FF"/>
</linearGradient>
<linearGradient id="paint49_linear_2_394" x1="50.5039" y1="157.336" x2="48.0144" y2="139.123" gradientUnits="userSpaceOnUse">
<stop stop-color="#FEBBBA"/>
<stop offset="1" stop-color="#FF928E"/>
</linearGradient>
<linearGradient id="paint50_linear_2_394" x1="-1.0223" y1="174.643" x2="55.1855" y2="151.129" gradientUnits="userSpaceOnUse">
<stop stop-color="#FEBBBA"/>
<stop offset="1" stop-color="#FF928E"/>
</linearGradient>
<linearGradient id="paint51_linear_2_394" x1="54.9369" y1="135.402" x2="41.1408" y2="93.2615" gradientUnits="userSpaceOnUse">
<stop stop-color="#FEBBBA"/>
<stop offset="1" stop-color="#FF928E"/>
</linearGradient>
<linearGradient id="paint52_linear_2_394" x1="56.8958" y1="101.472" x2="40.9485" y2="126.086" gradientUnits="userSpaceOnUse">
<stop stop-color="#09005D"/>
<stop offset="1" stop-color="#1A0F91"/>
</linearGradient>
<linearGradient id="paint53_linear_2_394" x1="49.8965" y1="137.053" x2="36.1004" y2="94.9121" gradientUnits="userSpaceOnUse">
<stop stop-color="#FEBBBA"/>
<stop offset="1" stop-color="#FF928E"/>
</linearGradient>
<linearGradient id="paint54_linear_2_394" x1="78.8845" y1="122.583" x2="49.6558" y2="162.986" gradientUnits="userSpaceOnUse">
<stop stop-color="#FEBBBA"/>
<stop offset="1" stop-color="#FF928E"/>
</linearGradient>
<linearGradient id="paint55_linear_2_394" x1="86.9515" y1="107.85" x2="92.3542" y2="107.85" gradientUnits="userSpaceOnUse">
<stop stop-color="#FEBBBA"/>
<stop offset="1" stop-color="#FF928E"/>
</linearGradient>
<linearGradient id="paint56_linear_2_394" x1="61.0881" y1="141.435" x2="79.3095" y2="217.358" gradientUnits="userSpaceOnUse">
<stop stop-color="#09005D"/>
<stop offset="1" stop-color="#1A0F91"/>
</linearGradient>
<linearGradient id="paint57_linear_2_394" x1="48.6023" y1="161.52" x2="58.9261" y2="161.52" gradientUnits="userSpaceOnUse">
<stop stop-color="#FEBBBA"/>
<stop offset="1" stop-color="#FF928E"/>
</linearGradient>
</defs>
</svg>
