<svg width="288" height="284" viewBox="0 0 288 284" fill="none" xmlns="http://www.w3.org/2000/svg">
<path d="M274.241 192.556C245.244 259.584 168.7 288.374 108.726 283.465C92.3511 282.125 59.4039 279.428 33.6784 255.37C-15.7257 209.167 -8.11701 112.59 39.1768 55.7307C45.2673 48.4085 87.4246 -0.650117 153.119 0.00653145C201.217 0.487303 234.976 27.3566 239.081 30.7039C244.267 34.9326 255.704 44.9812 266.012 60.9226C290.233 98.3795 292.362 150.67 274.241 192.556Z" fill="url(#paint0_linear_2_292)"/>
<path d="M22.4621 241.989C22.4621 244.443 24.4713 246.45 26.927 246.45H268.373C270.829 246.45 272.838 244.443 272.838 241.989L274.847 103.237C274.847 100.784 271.957 95.9941 266.659 96.354L30.6918 90.2484C27.6106 90.1687 24.6314 91.3546 22.4495 93.5294C20.2675 95.7043 19.0736 98.6778 19.1465 101.756L22.4621 241.989Z" fill="url(#paint1_linear_2_292)"/>
<path d="M26.87 237.71C26.87 240.033 28.7709 241.934 31.0941 241.934H262.55C264.874 241.934 266.774 240.033 266.774 237.71L268.67 111.749C268.447 104.169 261.801 101.445 257.773 101.606L31.6195 95.5385C29.4548 95.4805 27.3618 96.3144 25.8287 97.8437C24.2955 99.3729 23.4524 101.466 23.5066 103.631L26.87 237.71Z" fill="url(#paint2_linear_2_292)"/>
<path d="M264.273 177.87C264.27 177.87 264.267 177.87 264.264 177.87C263.922 177.865 263.649 177.584 263.654 177.242L263.804 167.026C263.809 166.688 264.085 166.417 264.423 166.417C264.426 166.417 264.429 166.417 264.432 166.417C264.774 166.421 265.047 166.703 265.042 167.045L264.892 177.26C264.887 177.599 264.611 177.87 264.273 177.87Z" fill="white"/>
<path opacity="0.62" d="M264.641 152.838C264.638 152.838 264.635 152.838 264.632 152.838C264.29 152.833 264.017 152.551 264.022 152.209L264.596 113.085C264.585 110.761 263.88 108.905 262.499 107.582C259.922 105.113 255.83 105.239 255.658 105.247L183.374 103.309C183.033 103.3 182.763 103.015 182.772 102.673C182.781 102.332 183.044 102.041 183.408 102.072L255.648 104.01C256.098 103.983 260.454 103.908 263.356 106.688C264.988 108.252 265.822 110.407 265.834 113.091L265.259 152.228C265.255 152.566 264.978 152.838 264.641 152.838Z" fill="white"/>
<path d="M3.44823 257.968H286.957C287.272 257.968 287.53 257.71 287.53 257.395V246.35C287.53 246.035 287.272 245.777 286.957 245.777H3.44823C3.13279 245.777 2.87476 246.035 2.87476 246.35V257.395C2.87486 257.71 3.13289 257.968 3.44823 257.968Z" fill="url(#paint3_linear_2_292)"/>
<path d="M210.641 1.444L44.357 0.425964C38.8921 0.392493 34.5215 4.95718 34.7921 10.4154L46.232 246.666H231.275L241.55 35.5888L210.641 1.444Z" fill="#91B3FA"/>
<path d="M217.556 34.5769C212.139 34.3863 207.975 29.7177 208.402 24.3146L210.184 1.75537L241.583 35.4504L217.556 34.5769Z" fill="#7D97F4"/>
<path d="M146.676 123.613H66.7712C66.2381 123.613 65.8059 123.181 65.8059 122.648V112.07C65.8059 111.537 66.2381 111.104 66.7712 111.104H146.676C147.21 111.104 147.642 111.537 147.642 112.07V122.648C147.642 123.181 147.21 123.613 146.676 123.613Z" fill="url(#paint4_linear_2_292)"/>
<path d="M204.792 124.037H181.734C179.912 124.037 178.435 122.56 178.435 120.737V114.828C178.435 113.006 179.912 111.528 181.734 111.528H204.792C206.614 111.528 208.092 113.006 208.092 114.828V120.737C208.092 122.56 206.614 124.037 204.792 124.037Z" fill="#BDD0FB"/>
<path d="M204.356 149.197H181.299C179.476 149.197 177.999 147.72 177.999 145.898V139.988C177.999 138.166 179.476 136.688 181.299 136.688H204.356C206.179 136.688 207.656 138.166 207.656 139.988V145.898C207.656 147.72 206.179 149.197 204.356 149.197Z" fill="#BDD0FB"/>
<path d="M204.256 173.04H181.199C179.376 173.04 177.899 171.562 177.899 169.74V163.831C177.899 162.008 179.376 160.531 181.199 160.531H204.256C206.079 160.531 207.556 162.008 207.556 163.831V169.74C207.556 171.562 206.079 173.04 204.256 173.04Z" fill="#BDD0FB"/>
<path d="M203.821 198.2H180.763C178.941 198.2 177.463 196.722 177.463 194.9V188.991C177.463 187.168 178.941 185.691 180.763 185.691H203.821C205.643 185.691 207.12 187.168 207.12 188.991V194.9C207.12 196.722 205.643 198.2 203.821 198.2Z" fill="#BDD0FB"/>
<path d="M136.779 149.609H67.7375C67.2452 149.609 66.8459 149.21 66.8459 148.718V137.992C66.8459 137.5 67.2451 137.101 67.7375 137.101H136.779C137.272 137.101 137.671 137.5 137.671 137.992V148.718C137.671 149.21 137.272 149.609 136.779 149.609Z" fill="url(#paint5_linear_2_292)"/>
<path d="M151.016 173.72H68.327C67.8921 173.72 67.5397 173.367 67.5397 172.933V161.998C67.5397 161.563 67.8921 161.211 68.327 161.211H151.016C151.45 161.211 151.803 161.563 151.803 161.998V172.933C151.803 173.367 151.45 173.72 151.016 173.72Z" fill="url(#paint6_linear_2_292)"/>
<path d="M161.172 197.804H70.307C69.9276 197.804 69.6201 197.496 69.6201 197.117V185.982C69.6201 185.602 69.9276 185.295 70.307 185.295H161.172C161.551 185.295 161.859 185.602 161.859 185.982V197.117C161.859 197.496 161.551 197.804 161.172 197.804Z" fill="url(#paint7_linear_2_292)"/>
<path d="M203.891 76.3794H71.6415C70.8256 76.3794 70.1642 75.7179 70.1642 74.902V62.2136C70.1642 61.3978 70.8256 60.7363 71.6415 60.7363H203.891C204.707 60.7363 205.368 61.3978 205.368 62.2136V74.902C205.369 75.7179 204.707 76.3794 203.891 76.3794Z" fill="url(#paint8_linear_2_292)"/>
<path d="M58.9965 106.182H216.344L216.658 97.789C216.813 93.6034 213.329 90.2334 208.977 90.2334H66.2164C61.8136 90.2334 58.3105 93.6817 58.5408 97.9132L58.9965 106.182Z" fill="#BDD0FB"/>
<path d="M204.96 214.611H72.1339C67.5836 214.611 63.832 211.172 63.593 206.782L57.6751 98.043C57.5536 95.8129 58.3459 93.6777 59.9054 92.031C61.5222 90.3241 63.8222 89.3452 66.2164 89.3452H208.977C211.343 89.3452 213.624 90.3047 215.237 91.9779C216.794 93.5929 217.606 95.6975 217.525 97.9039L213.508 206.642C213.343 211.111 209.588 214.611 204.96 214.611ZM66.2163 91.0788C64.2962 91.0788 62.4546 91.8603 61.1643 93.2231C59.9352 94.5208 59.3109 96.1991 59.406 97.949L65.3239 206.688C65.5131 210.159 68.5042 212.878 72.1339 212.878H204.961C208.651 212.878 211.645 210.111 211.776 206.578L215.792 97.84C215.856 96.1086 215.216 94.4539 213.989 93.1809C212.701 91.845 210.874 91.0788 208.977 91.0788H66.2163Z" fill="#BDD0FB"/>
<path d="M115.404 44.9998H61.9491C59.5557 44.9998 57.6155 43.0596 57.6155 40.6662V24.4225C57.6155 22.0291 59.5557 20.0889 61.9491 20.0889H115.404C117.797 20.0889 119.737 22.0291 119.737 24.4225V40.6662C119.737 43.0596 117.797 44.9998 115.404 44.9998Z" fill="#BDD0FB"/>
<path d="M74.5226 69.9716C88.8237 69.9716 100.417 58.3783 100.417 44.0771C100.417 29.776 88.8237 18.1826 74.5226 18.1826C60.2214 18.1826 48.6281 29.776 48.6281 44.0771C48.6281 58.3783 60.2214 69.9716 74.5226 69.9716Z" fill="url(#paint9_linear_2_292)"/>
<path d="M74.5225 69.1102C88.3481 69.1102 99.5559 57.9024 99.5559 44.0768C99.5559 30.2513 88.3481 19.0435 74.5225 19.0435C60.697 19.0435 49.4891 30.2513 49.4891 44.0768C49.4891 57.9024 60.697 69.1102 74.5225 69.1102Z" fill="url(#paint10_linear_2_292)"/>
<path opacity="0.62" d="M53.8799 34.0251C53.8274 34.0251 53.7742 34.0133 53.7241 33.9879C53.5531 33.9017 53.4844 33.6932 53.5707 33.5222C57.5874 25.5652 65.6157 20.6221 74.5226 20.6221C75.9447 20.6221 77.3681 20.7501 78.7536 21.0026C78.9419 21.037 79.0668 21.2177 79.0322 21.4059C78.9981 21.5945 78.8166 21.7191 78.629 21.6849C77.2847 21.4398 75.903 21.3155 74.5225 21.3155C65.8787 21.3155 58.0877 26.1127 54.1896 33.8347C54.1287 33.9556 54.0065 34.0251 53.8799 34.0251Z" fill="white"/>
<path opacity="0.78" d="M90.0483 59.6049C98.3225 51.3306 98.3225 37.9154 90.0483 29.6412C81.7741 21.367 68.3589 21.367 60.0846 29.6412C51.8104 37.9154 51.8104 51.3306 60.0846 59.6049C68.3589 67.8791 81.7741 67.8791 90.0483 59.6049Z" fill="white"/>
<path d="M72.9887 60.3741V58.0689C70.5857 57.9727 68.2089 57.4056 66.5208 56.6666C65.918 56.4027 65.6106 55.7261 65.7838 55.0913L66.3694 52.9441C66.5842 52.1565 67.4409 51.749 68.1938 52.0647C69.8684 52.7666 71.9361 53.3221 74.1657 53.3221C76.4802 53.3221 78.2062 52.5373 78.2062 50.9289C78.2062 49.4775 76.8726 48.6146 73.6556 47.7516C69.0659 46.4962 65.7705 44.4955 65.7705 40.4548C65.7705 36.8064 68.4383 34.0211 73.0673 33.2759V30.9706C73.0673 30.2288 73.6686 29.6274 74.4104 29.6274H75.7647C76.5066 29.6274 77.1079 30.2288 77.1079 30.9706V33.0404C79.3315 33.1294 80.9501 33.5097 82.2346 33.961C82.8926 34.1922 83.2523 34.9011 83.0697 35.5744L82.5313 37.5602C82.3236 38.326 81.5052 38.7454 80.7632 38.4648C79.5805 38.0176 77.9084 37.5519 75.735 37.5519C72.989 37.5519 72.2045 38.6895 72.2045 39.7094C72.2045 40.9648 73.8521 41.8278 77.4219 42.9263C82.5217 44.4562 84.6401 46.5745 84.6401 50.3797C84.6401 53.8711 82.051 57.0095 77.0297 57.7943V60.374C77.0297 61.1157 76.4283 61.7171 75.6865 61.7171H74.332C73.5901 61.7172 72.9887 61.1158 72.9887 60.3741Z" fill="url(#paint11_linear_2_292)"/>
<path d="M91.4452 159.1C100.889 159.1 108.545 151.444 108.545 142C108.545 132.556 100.889 124.9 91.4452 124.9C82.0011 124.9 74.3451 132.556 74.3451 142C74.3451 151.444 82.0011 159.1 91.4452 159.1Z" fill="url(#paint12_linear_2_292)"/>
<path d="M91.4451 158.531C100.575 158.531 107.977 151.13 107.977 142C107.977 132.87 100.575 125.468 91.4451 125.468C82.315 125.468 74.9136 132.87 74.9136 142C74.9136 151.13 82.315 158.531 91.4451 158.531Z" fill="url(#paint13_linear_2_292)"/>
<path opacity="0.62" d="M77.813 135.479C77.7605 135.479 77.7073 135.468 77.6572 135.442C77.4862 135.356 77.4175 135.147 77.5038 134.976C80.1767 129.682 85.5186 126.393 91.4452 126.393C92.3909 126.393 93.338 126.478 94.2605 126.646C94.4488 126.68 94.5738 126.861 94.5392 127.049C94.505 127.238 94.3245 127.363 94.1359 127.328C93.2546 127.167 92.3491 127.086 91.4451 127.086C85.7815 127.086 80.6769 130.229 78.1227 135.289C78.0619 135.41 77.9397 135.479 77.813 135.479Z" fill="white"/>
<path opacity="0.78" d="M105.655 144.305C106.727 136.653 101.392 129.58 93.7394 128.508C86.0868 127.437 79.0143 132.771 77.9425 140.424C76.8707 148.077 82.2054 155.149 89.858 156.221C97.5105 157.293 104.583 151.958 105.655 144.305Z" fill="white"/>
<path d="M90.4323 152.762V151.24C88.8454 151.176 87.2758 150.802 86.161 150.314C85.763 150.139 85.56 149.693 85.6743 149.273L86.061 147.855C86.2029 147.335 86.7685 147.066 87.2659 147.275C88.3717 147.738 89.7373 148.105 91.2096 148.105C92.738 148.105 93.8779 147.587 93.8779 146.525C93.8779 145.566 92.9971 144.996 90.8728 144.426C87.8418 143.597 85.6656 142.276 85.6656 139.608C85.6656 137.198 87.4273 135.359 90.4842 134.867V133.345C90.4842 132.855 90.8813 132.458 91.3712 132.458H92.2656C92.7555 132.458 93.1526 132.855 93.1526 133.345V134.711C94.621 134.77 95.6898 135.021 96.538 135.319C96.9727 135.472 97.2101 135.94 97.0896 136.385L96.734 137.696C96.5969 138.202 96.0564 138.479 95.5663 138.294C94.7853 137.998 93.6811 137.691 92.2458 137.691C90.4323 137.691 89.9144 138.442 89.9144 139.115C89.9144 139.944 91.0024 140.514 93.3598 141.24C96.7276 142.25 98.1265 143.649 98.1265 146.162C98.1265 148.468 96.4169 150.54 93.1007 151.058V152.762C93.1007 153.252 92.7036 153.649 92.2139 153.649H91.3194C90.8294 153.649 90.4323 153.252 90.4323 152.762Z" fill="url(#paint14_linear_2_292)"/>
<path d="M116.654 183.206C122.834 183.206 127.844 178.196 127.844 172.016C127.844 165.836 122.834 160.826 116.654 160.826C110.474 160.826 105.464 165.836 105.464 172.016C105.464 178.196 110.474 183.206 116.654 183.206Z" fill="url(#paint15_linear_2_292)"/>
<path d="M116.654 182.833C122.629 182.833 127.472 177.99 127.472 172.016C127.472 166.041 122.629 161.198 116.654 161.198C110.68 161.198 105.836 166.041 105.836 172.016C105.836 177.99 110.68 182.833 116.654 182.833Z" fill="url(#paint16_linear_2_292)"/>
<path opacity="0.62" d="M107.733 167.868C107.681 167.868 107.628 167.857 107.578 167.831C107.407 167.745 107.338 167.536 107.424 167.365C109.193 163.86 112.73 161.683 116.654 161.683C117.28 161.683 117.907 161.739 118.518 161.85C118.706 161.885 118.831 162.065 118.797 162.254C118.763 162.442 118.585 162.566 118.393 162.533C117.823 162.429 117.238 162.376 116.654 162.376C112.993 162.376 109.694 164.408 108.043 167.678C107.982 167.799 107.86 167.868 107.733 167.868Z" fill="white"/>
<path opacity="0.78" d="M125.933 173.72C126.743 168.729 123.354 164.026 118.362 163.216C113.371 162.406 108.668 165.795 107.857 170.787C107.047 175.778 110.437 180.481 115.429 181.292C120.42 182.102 125.123 178.712 125.933 173.72Z" fill="white"/>
<path d="M115.991 179.058V178.062C114.953 178.021 113.926 177.775 113.196 177.456C112.936 177.342 112.803 177.05 112.878 176.775L113.131 175.848C113.224 175.507 113.594 175.331 113.919 175.467C114.643 175.771 115.536 176.011 116.5 176.011C117.5 176.011 118.246 175.672 118.246 174.977C118.246 174.349 117.67 173.976 116.28 173.604C114.296 173.061 112.872 172.196 112.872 170.45C112.872 168.874 114.025 167.67 116.025 167.348V166.352C116.025 166.031 116.285 165.771 116.606 165.771H117.191C117.512 165.771 117.772 166.031 117.772 166.352V167.246C118.732 167.285 119.432 167.449 119.987 167.644C120.271 167.744 120.427 168.05 120.348 168.341L120.115 169.199C120.025 169.53 119.672 169.712 119.351 169.59C118.84 169.397 118.117 169.196 117.178 169.196C115.991 169.196 115.653 169.687 115.653 170.128C115.653 170.671 116.364 171.044 117.907 171.518C120.111 172.179 121.026 173.095 121.026 174.739C121.026 176.248 119.908 177.604 117.738 177.943V179.058C117.738 179.379 117.478 179.639 117.157 179.639H116.572C116.251 179.639 115.991 179.379 115.991 179.058Z" fill="url(#paint17_linear_2_292)"/>
<path d="M72.7887 119.067C84.0918 119.067 93.2548 109.904 93.2548 98.6009C93.2548 87.2978 84.0918 78.1348 72.7887 78.1348C61.4855 78.1348 52.3225 87.2978 52.3225 98.6009C52.3225 109.904 61.4855 119.067 72.7887 119.067Z" fill="url(#paint18_linear_2_292)"/>
<path d="M72.7886 118.387C83.7159 118.387 92.5743 109.528 92.5743 98.6011C92.5743 87.6738 83.7159 78.8154 72.7886 78.8154C61.8613 78.8154 53.0029 87.6738 53.0029 98.6011C53.0029 109.528 61.8613 118.387 72.7886 118.387Z" fill="url(#paint19_linear_2_292)"/>
<path opacity="0.62" d="M56.4734 90.7291C56.4209 90.7291 56.3677 90.7172 56.3176 90.6919C56.1466 90.6056 56.0779 90.3971 56.1642 90.2261C59.351 83.9125 65.7212 79.9902 72.7886 79.9902C73.9158 79.9902 75.0453 80.0919 76.1457 80.2923C76.3342 80.3267 76.4592 80.5071 76.4247 80.6956C76.3905 80.8841 76.2104 81.0078 76.0218 80.9746C74.962 80.7816 73.8745 80.6838 72.7887 80.6838C65.9845 80.6838 59.8516 84.4599 56.7832 90.5388C56.7223 90.6595 56.6001 90.7291 56.4734 90.7291Z" fill="white"/>
<path opacity="0.78" d="M73.2197 115.778C82.4683 115.778 89.9658 108.281 89.9658 99.0322C89.9658 89.7836 82.4683 82.2861 73.2197 82.2861C63.9711 82.2861 56.4736 89.7836 56.4736 99.0322C56.4736 108.281 63.9711 115.778 73.2197 115.778Z" fill="white"/>
<path d="M71.5765 111.482V109.66C69.6771 109.584 67.7986 109.136 66.4644 108.552C65.988 108.343 65.745 107.808 65.8819 107.307L66.3447 105.609C66.5145 104.987 67.1915 104.665 67.7867 104.914C69.1102 105.469 70.7445 105.908 72.5067 105.908C74.3361 105.908 75.7003 105.288 75.7003 104.017C75.7003 102.87 74.6461 102.188 72.1036 101.505C68.476 100.513 65.8714 98.9319 65.8714 95.7383C65.8714 92.8546 67.9799 90.6533 71.6386 90.0643V88.2422C71.6386 87.6559 72.1139 87.1807 72.7001 87.1807H73.7705C74.3567 87.1807 74.832 87.656 74.832 88.2422V89.8782C76.5895 89.9484 77.8688 90.2491 78.884 90.6057C79.4041 90.7885 79.6883 91.3489 79.5441 91.881L79.1185 93.4505C78.9544 94.0557 78.3076 94.3872 77.721 94.1654C76.7863 93.812 75.4648 93.444 73.747 93.444C71.5766 93.444 70.9566 94.343 70.9566 95.1493C70.9566 96.1415 72.2587 96.8235 75.0802 97.6918C79.111 98.9009 80.7853 100.575 80.7853 103.583C80.7853 106.342 78.739 108.823 74.7703 109.443V111.482C74.7703 112.068 74.295 112.543 73.7087 112.543H72.6381C72.0517 112.543 71.5765 112.068 71.5765 111.482Z" fill="url(#paint20_linear_2_292)"/>
<path d="M143.226 236.65C144.784 236.866 153.865 241.58 153.518 235.609C153.485 235.046 153.131 228.938 153.131 228.938C153.131 228.938 142.778 236.587 143.226 236.65Z" fill="url(#paint21_linear_2_292)"/>
<path d="M114.088 267.099C114.088 267.099 111.95 265.524 109.252 265.929C107.381 266.37 105.26 268.171 103.902 269.494C103.665 269.725 103.601 270.074 103.741 270.369C103.882 270.664 104.196 270.842 104.53 270.816C108.072 270.537 114.996 269.924 114.966 269.401C114.925 268.699 114.088 267.099 114.088 267.099Z" fill="url(#paint22_linear_2_292)"/>
<path d="M115.32 264.034L113.871 267.202C113.871 267.202 110.211 267.717 110.248 266.263C110.285 264.81 111.087 263.009 111.087 263.009L115.32 264.034Z" fill="url(#paint23_linear_2_292)"/>
<path d="M156.998 263.715C153.64 249.941 153.558 241.431 153.558 241.431C153.558 241.431 121.947 224.519 119.312 229.147C116.678 233.776 110.154 264.697 110.154 264.697L115.77 265.883C115.77 265.883 125.507 250.954 125.762 238.677C129 247.432 132.773 268.586 153.742 267.981C154.783 267.951 155.754 267.453 156.386 266.625C157.018 265.797 157.245 264.727 156.998 263.715Z" fill="url(#paint24_linear_2_292)"/>
<path d="M95.8917 266.915L92.7016 270.306L89.8955 267.808L93.1571 263.566L95.8917 266.915Z" fill="url(#paint25_linear_2_292)"/>
<path d="M166.147 193.268L169.569 203.491C169.726 203.959 169.596 204.484 169.241 204.786C167.944 205.892 164.516 208.14 159.535 206.438C158.966 206.243 158.551 205.691 158.465 205.041L157.272 196.031L166.147 193.268Z" fill="url(#paint26_linear_2_292)"/>
<path d="M149.164 185.848C149.164 185.848 150.287 195.643 153.954 198.745C157.621 201.847 164.985 199.786 167.651 192.497L163.077 179.787L149.164 185.848Z" fill="url(#paint27_linear_2_292)"/>
<path d="M162.484 188.66C162.197 188.744 161.903 188.553 161.867 188.256C161.756 187.351 161.466 185.559 160.816 184.327C160.816 184.327 161.208 183.056 157.563 184.893C153.917 186.729 148.444 189.424 145.313 187.646C142.26 185.912 139.347 177.527 147.492 179.287C147.802 179.354 148.095 179.114 148.08 178.797C148.017 177.43 148.237 174.295 151.443 173.374C154.442 172.512 156.034 173.899 156.683 174.727C156.874 174.971 157.24 174.976 157.435 174.736C158.358 173.597 160.844 171.187 164.364 172.853C167.262 174.225 167.67 176.045 167.591 177.17C167.565 177.534 167.929 177.791 168.265 177.648C169.174 177.258 170.625 177.082 171.963 178.855C173.812 181.305 171.02 183.31 170.185 183.833C170.048 183.918 169.96 184.064 169.955 184.226C169.914 185.472 169.8 191.025 166.99 194.02C166.747 194.279 166.085 194.071 165.956 193.74L163.992 188.681C163.901 188.446 163.645 188.32 163.403 188.391L162.484 188.66Z" fill="url(#paint28_linear_2_292)"/>
<path d="M162.114 189.389C162.114 189.389 163.537 184.202 165.439 185.95C167.34 187.698 164.784 191.363 162.534 192.014L162.114 189.389Z" fill="url(#paint29_linear_2_292)"/>
<path d="M94.2573 268.653C93.4325 268.71 89.8711 267.386 89.8711 267.386L86.6864 268.437C83.8419 268.167 81.4762 269.268 79.901 270.338C79.5569 270.572 79.4104 271.007 79.5411 271.402C79.6718 271.797 80.0486 272.057 80.4641 272.04C83.6599 271.907 88.906 271.656 91.5524 271.343C95.5167 270.874 96.1261 270.954 94.2573 268.653Z" fill="url(#paint30_linear_2_292)"/>
<path d="M120.187 232.701L111.841 209.788C111.501 208.853 110.616 208.227 109.622 208.217L100.143 208.119C99.1798 208.109 98.5205 209.088 98.8917 209.977L108.001 231.793C108.295 232.495 108.968 232.965 109.729 232.998L119.086 233.49L120.187 232.701Z" fill="url(#paint31_linear_2_292)"/>
<path d="M119.086 233.49C119.101 233.489 119.116 233.488 119.131 233.486L138.882 231.335C139.371 231.282 139.723 230.843 139.67 230.355C139.617 229.867 139.176 229.506 138.69 229.567L118.939 231.718C118.45 231.771 118.098 232.21 118.151 232.699C118.202 233.172 118.616 233.518 119.086 233.49Z" fill="url(#paint32_linear_2_292)"/>
<path d="M148.382 228.969C148.382 228.969 144.788 234.198 133.297 228.379C133.297 228.379 129.988 225.671 126.773 226.183C123.558 226.695 121.467 231.231 121.467 231.231L127.701 230.741C127.701 230.741 136.975 240.751 155.09 239.7C155.363 235.64 151.021 232.462 148.382 228.969Z" fill="url(#paint33_linear_2_292)"/>
<path d="M162.292 202.682C159.957 203.339 157.478 205.992 155.745 208.206C154.354 209.982 153.392 212.013 152.886 214.212C151.747 219.165 149.19 228.877 147.184 229.908C152.23 236.258 153.141 238.379 153.141 238.379C152.724 246.33 150.98 248.017 150.98 248.017C150.98 248.017 160.61 256.526 171.786 258.458C181.4 250.481 181.708 229.24 181.708 229.24C181.038 204.106 169.217 200.733 162.292 202.682Z" fill="url(#paint34_linear_2_292)"/>
<path d="M153.072 238.649C153.008 238.652 152.944 238.63 152.896 238.58C152.809 238.49 152.811 238.346 152.901 238.259C152.987 238.175 161.581 229.746 163.428 219.461C163.45 219.337 163.568 219.256 163.692 219.277C163.815 219.3 163.897 219.418 163.875 219.541C162.001 229.973 153.305 238.5 153.217 238.585C153.176 238.625 153.125 238.646 153.072 238.649Z" fill="url(#paint35_linear_2_292)"/>
<path d="M171.786 258.458C171.786 258.458 168.046 272.162 145.295 265.923C134.264 262.897 117.886 242.596 117.886 242.596C117.886 242.596 114.743 253.06 96.0114 267.937L91.4453 264.291C91.4453 264.291 109.238 229.067 119.57 232.015C129.901 234.964 174.374 249.558 171.786 258.458Z" fill="url(#paint36_linear_2_292)"/>
<path d="M101.191 209.752L110.034 230.529L118.106 229.85L110.48 209.867L101.191 209.752Z" fill="#BDD0FB"/>
<path d="M285.473 154.245C286.03 174.168 287.84 242.888 286.976 267.241C286.884 269.821 284.548 271.891 281.634 271.976C267.222 272.393 214.387 273.452 190.813 272.576C185.903 272.393 181.998 268.872 181.896 264.522C181.406 243.611 180.326 184.796 182.895 157.852C183.202 154.624 186.064 152.053 189.705 151.731C205.401 150.341 258.464 146.942 278.83 148.113C282.503 148.324 285.381 150.987 285.473 154.245Z" fill="url(#paint37_linear_2_292)"/>
<path d="M281.333 163.028V179.912C281.333 183.15 278.708 185.774 275.471 185.774H194.804C191.567 185.774 188.942 183.15 188.942 179.912V163.028C188.942 159.791 191.567 157.166 194.804 157.166H275.471C278.708 157.166 281.333 159.791 281.333 163.028Z" fill="url(#paint38_linear_2_292)"/>
<path opacity="0.2" d="M193.231 162.199C193.957 161.475 194.942 161.069 195.968 161.071L271.458 161.213C273.476 161.217 275.151 162.773 275.304 164.786L276.574 181.556C276.678 182.93 274.403 184.044 271.526 184.028L197.314 183.608C194.442 183.591 192.089 182.454 192.089 181.084L192.096 164.933C192.097 163.907 192.505 162.924 193.231 162.199Z" fill="white"/>
<path d="M261.167 202.893C261.167 205.872 263.581 208.287 266.56 208.287H273.126C276.104 208.287 278.519 205.872 278.519 202.893C278.519 199.915 276.104 197.5 273.126 197.5H266.56C263.581 197.5 261.167 199.915 261.167 202.893Z" fill="url(#paint39_linear_2_292)"/>
<path d="M236.779 202.893C236.779 205.872 239.194 208.287 242.172 208.287H248.738C251.717 208.287 254.132 205.872 254.132 202.893C254.132 199.915 251.717 197.5 248.738 197.5H242.172C239.194 197.5 236.779 199.915 236.779 202.893Z" fill="url(#paint40_linear_2_292)"/>
<path d="M213.329 202.893C213.329 205.872 215.744 208.287 218.723 208.287H225.289C228.267 208.287 230.682 205.872 230.682 202.893C230.682 199.915 228.267 197.5 225.289 197.5H218.723C215.744 197.5 213.329 199.915 213.329 202.893Z" fill="url(#paint41_linear_2_292)"/>
<path d="M189.559 203.685C189.559 206.712 192.013 209.166 195.039 209.166H201.385C204.412 209.166 206.866 206.712 206.866 203.685C206.866 200.658 204.412 198.204 201.385 198.204H195.039C192.012 198.204 189.559 200.658 189.559 203.685Z" fill="url(#paint42_linear_2_292)"/>
<path d="M261.167 219.777C261.167 222.755 263.581 225.17 266.56 225.17H273.126C276.104 225.17 278.519 222.755 278.519 219.777C278.519 216.798 276.104 214.383 273.126 214.383H266.56C263.581 214.383 261.167 216.798 261.167 219.777Z" fill="url(#paint43_linear_2_292)"/>
<path d="M236.779 219.777C236.779 222.755 239.194 225.17 242.172 225.17H248.738C251.717 225.17 254.132 222.755 254.132 219.777C254.132 216.798 251.717 214.383 248.738 214.383H242.172C239.194 214.383 236.779 216.798 236.779 219.777Z" fill="url(#paint44_linear_2_292)"/>
<path d="M213.329 219.777C213.329 222.755 215.744 225.17 218.723 225.17H225.289C228.267 225.17 230.682 222.755 230.682 219.777C230.682 216.798 228.267 214.383 225.289 214.383H218.723C215.744 214.383 213.329 216.798 213.329 219.777Z" fill="url(#paint45_linear_2_292)"/>
<path d="M188.942 219.777C188.942 222.755 191.357 225.17 194.335 225.17H200.901C203.88 225.17 206.295 222.755 206.295 219.777C206.295 216.798 203.88 214.383 200.901 214.383H194.335C191.357 214.383 188.942 216.798 188.942 219.777Z" fill="url(#paint46_linear_2_292)"/>
<path opacity="0.63" d="M261.167 234.729C261.167 237.708 263.581 240.123 266.56 240.123H273.126C276.105 240.123 278.519 237.708 278.519 234.729C278.519 231.751 276.105 229.336 273.126 229.336H266.56C263.581 229.336 261.167 231.751 261.167 234.729Z" fill="url(#paint47_linear_2_292)"/>
<path opacity="0.63" d="M236.779 234.729C236.779 237.708 239.194 240.123 242.172 240.123H248.738C251.717 240.123 254.132 237.708 254.132 234.729C254.132 231.751 251.717 229.336 248.738 229.336H242.172C239.194 229.336 236.779 231.751 236.779 234.729Z" fill="url(#paint48_linear_2_292)"/>
<path d="M213.329 234.729C213.329 237.708 215.744 240.123 218.723 240.123H225.289C228.267 240.123 230.682 237.708 230.682 234.729C230.682 231.751 228.267 229.336 225.289 229.336H218.723C215.744 229.336 213.329 231.751 213.329 234.729Z" fill="url(#paint49_linear_2_292)"/>
<path d="M261.167 251.144C261.167 254.123 263.581 256.537 266.56 256.537H273.126C276.105 256.537 278.519 254.123 278.519 251.144C278.519 248.165 276.105 245.75 273.126 245.75H266.56C263.581 245.75 261.167 248.165 261.167 251.144Z" fill="url(#paint50_linear_2_292)"/>
<path d="M236.779 251.144C236.779 254.123 239.194 256.537 242.172 256.537H248.738C251.717 256.537 254.132 254.123 254.132 251.144C254.132 248.165 251.717 245.75 248.738 245.75H242.172C239.194 245.75 236.779 248.165 236.779 251.144Z" fill="url(#paint51_linear_2_292)"/>
<path d="M213.329 251.144C213.329 254.123 215.744 256.537 218.723 256.537H225.289C228.267 256.537 230.682 254.123 230.682 251.144C230.682 248.165 228.267 245.75 225.289 245.75H218.723C215.744 245.75 213.329 248.165 213.329 251.144Z" fill="url(#paint52_linear_2_292)"/>
<path d="M191.287 250.703C191.287 254.474 194.343 257.53 198.114 257.53H198.53C202.3 257.53 205.357 254.474 205.357 250.703V237.625C205.357 233.854 202.3 230.798 198.53 230.798H198.114C194.343 230.798 191.287 233.854 191.287 237.625V250.703Z" fill="url(#paint53_linear_2_292)"/>
<defs>
<linearGradient id="paint0_linear_2_292" x1="302.719" y1="321.867" x2="92.9347" y2="95.434" gradientUnits="userSpaceOnUse">
<stop stop-color="#DAE3FE"/>
<stop offset="1" stop-color="#E9EFFD"/>
</linearGradient>
<linearGradient id="paint1_linear_2_292" x1="169.703" y1="235.783" x2="112.679" y2="64.7101" gradientUnits="userSpaceOnUse">
<stop stop-color="#09005D"/>
<stop offset="1" stop-color="#1A0F91"/>
</linearGradient>
<linearGradient id="paint2_linear_2_292" x1="242.857" y1="83.9457" x2="34.8747" y2="266.549" gradientUnits="userSpaceOnUse">
<stop stop-color="#FE7062"/>
<stop offset="1" stop-color="#FF928E"/>
</linearGradient>
<linearGradient id="paint3_linear_2_292" x1="146.191" y1="108.972" x2="145.15" y2="259.468" gradientUnits="userSpaceOnUse">
<stop stop-color="#09005D"/>
<stop offset="1" stop-color="#1A0F91"/>
</linearGradient>
<linearGradient id="paint4_linear_2_292" x1="65.8058" y1="117.359" x2="147.642" y2="117.359" gradientUnits="userSpaceOnUse">
<stop stop-color="#DAE3FE"/>
<stop offset="1" stop-color="#E9EFFD"/>
</linearGradient>
<linearGradient id="paint5_linear_2_292" x1="66.846" y1="143.355" x2="137.671" y2="143.355" gradientUnits="userSpaceOnUse">
<stop stop-color="#DAE3FE"/>
<stop offset="1" stop-color="#E9EFFD"/>
</linearGradient>
<linearGradient id="paint6_linear_2_292" x1="67.5396" y1="167.465" x2="151.803" y2="167.465" gradientUnits="userSpaceOnUse">
<stop stop-color="#DAE3FE"/>
<stop offset="1" stop-color="#E9EFFD"/>
</linearGradient>
<linearGradient id="paint7_linear_2_292" x1="69.6201" y1="191.549" x2="161.859" y2="191.549" gradientUnits="userSpaceOnUse">
<stop stop-color="#DAE3FE"/>
<stop offset="1" stop-color="#E9EFFD"/>
</linearGradient>
<linearGradient id="paint8_linear_2_292" x1="70.1642" y1="68.5578" x2="205.369" y2="68.5578" gradientUnits="userSpaceOnUse">
<stop stop-color="#DAE3FE"/>
<stop offset="1" stop-color="#E9EFFD"/>
</linearGradient>
<linearGradient id="paint9_linear_2_292" x1="39.0884" y1="85.2061" x2="73.821" y2="44.8915" gradientUnits="userSpaceOnUse">
<stop stop-color="#E1473D"/>
<stop offset="1" stop-color="#E9605A"/>
</linearGradient>
<linearGradient id="paint10_linear_2_292" x1="93.4471" y1="15.4872" x2="-9.25813" y2="170.646" gradientUnits="userSpaceOnUse">
<stop stop-color="#FE7062"/>
<stop offset="1" stop-color="#FF928E"/>
</linearGradient>
<linearGradient id="paint11_linear_2_292" x1="90.3834" y1="19.9335" x2="35.6949" y2="111.746" gradientUnits="userSpaceOnUse">
<stop stop-color="#FE7062"/>
<stop offset="1" stop-color="#FF928E"/>
</linearGradient>
<linearGradient id="paint12_linear_2_292" x1="68.0453" y1="169.161" x2="90.982" y2="142.538" gradientUnits="userSpaceOnUse">
<stop stop-color="#E1473D"/>
<stop offset="1" stop-color="#E9605A"/>
</linearGradient>
<linearGradient id="paint13_linear_2_292" x1="103.943" y1="123.12" x2="36.118" y2="225.583" gradientUnits="userSpaceOnUse">
<stop stop-color="#FE7062"/>
<stop offset="1" stop-color="#FF928E"/>
</linearGradient>
<linearGradient id="paint14_linear_2_292" x1="101.919" y1="126.056" x2="65.8041" y2="186.687" gradientUnits="userSpaceOnUse">
<stop stop-color="#FE7062"/>
<stop offset="1" stop-color="#FF928E"/>
</linearGradient>
<linearGradient id="paint15_linear_2_292" x1="101.341" y1="189.789" x2="116.351" y2="172.368" gradientUnits="userSpaceOnUse">
<stop stop-color="#E1473D"/>
<stop offset="1" stop-color="#E9605A"/>
</linearGradient>
<linearGradient id="paint16_linear_2_292" x1="124.832" y1="159.661" x2="80.4492" y2="226.711" gradientUnits="userSpaceOnUse">
<stop stop-color="#FE7062"/>
<stop offset="1" stop-color="#FF928E"/>
</linearGradient>
<linearGradient id="paint17_linear_2_292" x1="123.508" y1="161.582" x2="99.8752" y2="201.258" gradientUnits="userSpaceOnUse">
<stop stop-color="#FE7062"/>
<stop offset="1" stop-color="#FF928E"/>
</linearGradient>
<linearGradient id="paint18_linear_2_292" x1="44.7826" y1="131.108" x2="72.2342" y2="99.2445" gradientUnits="userSpaceOnUse">
<stop stop-color="#E1473D"/>
<stop offset="1" stop-color="#E9605A"/>
</linearGradient>
<linearGradient id="paint19_linear_2_292" x1="87.7461" y1="76.0046" x2="6.57095" y2="198.637" gradientUnits="userSpaceOnUse">
<stop stop-color="#FE7062"/>
<stop offset="1" stop-color="#FF928E"/>
</linearGradient>
<linearGradient id="paint20_linear_2_292" x1="85.3246" y1="79.5187" x2="42.1005" y2="152.085" gradientUnits="userSpaceOnUse">
<stop stop-color="#FE7062"/>
<stop offset="1" stop-color="#FF928E"/>
</linearGradient>
<linearGradient id="paint21_linear_2_292" x1="151.527" y1="231.286" x2="145.097" y2="242.425" gradientUnits="userSpaceOnUse">
<stop stop-color="#FDF53F"/>
<stop offset="0.6645" stop-color="#E57A58"/>
<stop offset="1" stop-color="#D93C65"/>
</linearGradient>
<linearGradient id="paint22_linear_2_292" x1="113.091" y1="264.26" x2="105.424" y2="275.137" gradientUnits="userSpaceOnUse">
<stop stop-color="#09005D"/>
<stop offset="1" stop-color="#1A0F91"/>
</linearGradient>
<linearGradient id="paint23_linear_2_292" x1="114.511" y1="262.223" x2="110.059" y2="268.54" gradientUnits="userSpaceOnUse">
<stop stop-color="#FF928E"/>
<stop offset="1" stop-color="#FEB3B1"/>
</linearGradient>
<linearGradient id="paint24_linear_2_292" x1="142.413" y1="238.14" x2="165.296" y2="188.907" gradientUnits="userSpaceOnUse">
<stop stop-color="#4042E2"/>
<stop offset="1" stop-color="#4F52FF"/>
</linearGradient>
<linearGradient id="paint25_linear_2_292" x1="91.2711" y1="262.71" x2="94.9031" y2="273.123" gradientUnits="userSpaceOnUse">
<stop stop-color="#FF928E"/>
<stop offset="1" stop-color="#FEB3B1"/>
</linearGradient>
<linearGradient id="paint26_linear_2_292" x1="162.102" y1="191.484" x2="166.956" y2="223.728" gradientUnits="userSpaceOnUse">
<stop stop-color="#FF928E"/>
<stop offset="1" stop-color="#FEB3B1"/>
</linearGradient>
<linearGradient id="paint27_linear_2_292" x1="73.5022" y1="-224.514" x2="80.5483" y2="-190.158" gradientUnits="userSpaceOnUse">
<stop stop-color="#FF928E"/>
<stop offset="1" stop-color="#FEB3B1"/>
</linearGradient>
<linearGradient id="paint28_linear_2_292" x1="161.26" y1="162.137" x2="155.025" y2="192.792" gradientUnits="userSpaceOnUse">
<stop stop-color="#09005D"/>
<stop offset="1" stop-color="#1A0F91"/>
</linearGradient>
<linearGradient id="paint29_linear_2_292" x1="79.141" y1="-225.669" x2="86.1871" y2="-191.314" gradientUnits="userSpaceOnUse">
<stop stop-color="#FF928E"/>
<stop offset="1" stop-color="#FEB3B1"/>
</linearGradient>
<linearGradient id="paint30_linear_2_292" x1="85.8694" y1="266.407" x2="89.2565" y2="276.117" gradientUnits="userSpaceOnUse">
<stop stop-color="#09005D"/>
<stop offset="1" stop-color="#1A0F91"/>
</linearGradient>
<linearGradient id="paint31_linear_2_292" x1="119.464" y1="220.232" x2="99.4765" y2="221.391" gradientUnits="userSpaceOnUse">
<stop stop-color="#09005D"/>
<stop offset="1" stop-color="#1A0F91"/>
</linearGradient>
<linearGradient id="paint32_linear_2_292" x1="117.545" y1="229.108" x2="133.78" y2="232.561" gradientUnits="userSpaceOnUse">
<stop stop-color="#09005D"/>
<stop offset="1" stop-color="#1A0F91"/>
</linearGradient>
<linearGradient id="paint33_linear_2_292" x1="139.165" y1="236.959" x2="116.278" y2="179.084" gradientUnits="userSpaceOnUse">
<stop stop-color="#FF928E"/>
<stop offset="1" stop-color="#FEB3B1"/>
</linearGradient>
<linearGradient id="paint34_linear_2_292" x1="155.654" y1="203.824" x2="188.27" y2="297.333" gradientUnits="userSpaceOnUse">
<stop stop-color="#FE7062"/>
<stop offset="1" stop-color="#FF928E"/>
</linearGradient>
<linearGradient id="paint35_linear_2_292" x1="152.832" y1="228.962" x2="163.878" y2="228.962" gradientUnits="userSpaceOnUse">
<stop stop-color="#E1473D"/>
<stop offset="1" stop-color="#E9605A"/>
</linearGradient>
<linearGradient id="paint36_linear_2_292" x1="117.506" y1="220.119" x2="145.454" y2="300.246" gradientUnits="userSpaceOnUse">
<stop stop-color="#4042E2"/>
<stop offset="1" stop-color="#4F52FF"/>
</linearGradient>
<linearGradient id="paint37_linear_2_292" x1="275.678" y1="162.014" x2="125.879" y2="347.429" gradientUnits="userSpaceOnUse">
<stop stop-color="#09005D"/>
<stop offset="1" stop-color="#1A0F91"/>
</linearGradient>
<linearGradient id="paint38_linear_2_292" x1="289.502" y1="115.515" x2="179.608" y2="228.624" gradientUnits="userSpaceOnUse">
<stop stop-color="#FE7062"/>
<stop offset="1" stop-color="#FF928E"/>
</linearGradient>
<linearGradient id="paint39_linear_2_292" x1="337.624" y1="78.2952" x2="195.158" y2="340.18" gradientUnits="userSpaceOnUse">
<stop stop-color="#4042E2"/>
<stop offset="1" stop-color="#4F52FF"/>
</linearGradient>
<linearGradient id="paint40_linear_2_292" x1="318.806" y1="68.0575" x2="176.34" y2="329.943" gradientUnits="userSpaceOnUse">
<stop stop-color="#4042E2"/>
<stop offset="1" stop-color="#4F52FF"/>
</linearGradient>
<linearGradient id="paint41_linear_2_292" x1="300.711" y1="58.2144" x2="158.245" y2="320.1" gradientUnits="userSpaceOnUse">
<stop stop-color="#4042E2"/>
<stop offset="1" stop-color="#4F52FF"/>
</linearGradient>
<linearGradient id="paint42_linear_2_292" x1="192.858" y1="197.371" x2="231.511" y2="242.947" gradientUnits="userSpaceOnUse">
<stop stop-color="#FE7062"/>
<stop offset="1" stop-color="#FF928E"/>
</linearGradient>
<linearGradient id="paint43_linear_2_292" x1="344.711" y1="82.1505" x2="202.245" y2="344.036" gradientUnits="userSpaceOnUse">
<stop stop-color="#4042E2"/>
<stop offset="1" stop-color="#4F52FF"/>
</linearGradient>
<linearGradient id="paint44_linear_2_292" x1="325.893" y1="71.9135" x2="183.427" y2="333.799" gradientUnits="userSpaceOnUse">
<stop stop-color="#4042E2"/>
<stop offset="1" stop-color="#4F52FF"/>
</linearGradient>
<linearGradient id="paint45_linear_2_292" x1="307.799" y1="62.0692" x2="165.332" y2="323.955" gradientUnits="userSpaceOnUse">
<stop stop-color="#4042E2"/>
<stop offset="1" stop-color="#4F52FF"/>
</linearGradient>
<linearGradient id="paint46_linear_2_292" x1="288.98" y1="51.8323" x2="146.514" y2="313.718" gradientUnits="userSpaceOnUse">
<stop stop-color="#4042E2"/>
<stop offset="1" stop-color="#4F52FF"/>
</linearGradient>
<linearGradient id="paint47_linear_2_292" x1="581.768" y1="808.12" x2="724.233" y2="1070.01" gradientUnits="userSpaceOnUse">
<stop stop-color="#4042E2"/>
<stop offset="1" stop-color="#4F52FF"/>
</linearGradient>
<linearGradient id="paint48_linear_2_292" x1="332.17" y1="75.3277" x2="189.705" y2="337.213" gradientUnits="userSpaceOnUse">
<stop stop-color="#4042E2"/>
<stop offset="1" stop-color="#4F52FF"/>
</linearGradient>
<linearGradient id="paint49_linear_2_292" x1="314.075" y1="65.4846" x2="171.61" y2="327.37" gradientUnits="userSpaceOnUse">
<stop stop-color="#4042E2"/>
<stop offset="1" stop-color="#4F52FF"/>
</linearGradient>
<linearGradient id="paint50_linear_2_292" x1="315.222" y1="142.368" x2="243.989" y2="313.117" gradientUnits="userSpaceOnUse">
<stop stop-color="#4042E2"/>
<stop offset="1" stop-color="#4F52FF"/>
</linearGradient>
<linearGradient id="paint51_linear_2_292" x1="339.061" y1="79.0757" x2="196.595" y2="340.961" gradientUnits="userSpaceOnUse">
<stop stop-color="#4042E2"/>
<stop offset="1" stop-color="#4F52FF"/>
</linearGradient>
<linearGradient id="paint52_linear_2_292" x1="320.966" y1="69.2326" x2="178.5" y2="331.118" gradientUnits="userSpaceOnUse">
<stop stop-color="#4042E2"/>
<stop offset="1" stop-color="#4F52FF"/>
</linearGradient>
<linearGradient id="paint53_linear_2_292" x1="299.76" y1="57.6964" x2="157.295" y2="319.582" gradientUnits="userSpaceOnUse">
<stop stop-color="#4042E2"/>
<stop offset="1" stop-color="#4F52FF"/>
</linearGradient>
</defs>
</svg>
