<svg width="153" height="192" viewBox="0 0 153 192" fill="none" xmlns="http://www.w3.org/2000/svg">
<path d="M141.069 12.6543C140.262 12.8037 126.311 21.0827 126.467 23.0691C126.491 23.374 126.78 23.5435 127.322 23.5506C127.749 23.5567 140.759 13.5486 141.284 13.0843C141.488 12.9026 141.357 12.6039 141.069 12.6543Z" fill="#1B1092"/>
<path d="M146.292 36.4072C145.514 35.7098 131.507 33.8151 130.121 33.8192C129.445 33.8202 129.096 34.4541 129.379 34.8538C130.161 35.955 144.411 36.8887 146.093 36.8887C146.371 36.8867 146.439 36.5395 146.292 36.4072Z" fill="#1B1092"/>
<path d="M119.775 0.130795C119.519 0.020772 119.332 0.771752 118.958 2.00925C117.48 6.90072 116.842 7.8344 115.694 15.0747C115.551 15.9801 115.537 16.3485 115.815 16.8139C115.958 17.0531 116.166 17.1681 116.377 17.1661C117.429 17.154 116.852 15.865 119.4 3.95736C119.984 1.21992 120.181 0.297343 119.775 0.131804V0.130795Z" fill="#1B1092"/>
<path d="M19.9708 9.05071C19.9142 9.04567 19.8678 9.06888 19.8446 9.11128C19.5307 9.66442 20.2413 9.68662 31.185 20.9402C31.833 21.6074 32.5578 21.4651 32.5628 20.5355C32.5628 18.8932 20.8146 9.13348 19.9718 9.05172L19.9708 9.05071Z" fill="#1B1092"/>
<path d="M23.9649 30.6172C18.7939 30.6575 11.5627 30.4597 11.71 31.2551C11.8685 32.1292 26.2441 32.1989 27.418 32.1494C27.8167 32.1332 28.4486 31.9304 28.4486 31.4549C28.4506 30.4718 26.9739 30.5919 23.9649 30.6172Z" fill="#1B1092"/>
<path d="M43.4631 6.88942C43.3379 6.0486 42.3598 0.35164 42.3598 0.35164C42.3387 0.219411 42.2993 -0.026878 42.0278 0.00239406C41.9187 0.015516 41.5836 0.0841543 42.266 8.45295C42.7071 13.8673 42.057 16.8752 43.1815 16.7188C43.6236 16.6612 43.8699 16.1162 43.887 15.9587C44.2847 14.3185 43.8002 9.16658 43.4631 6.88841V6.88942Z" fill="#1B1092"/>
<path d="M82.5777 156.744C81.6541 155.483 79.81 154.632 78.0728 155.441C76.7102 156.078 76.0107 157.551 75.937 158.649C75.8078 160.579 77.6963 162.319 79.6818 162.319C82.1972 162.319 84.4299 159.272 82.5777 156.744ZM79.9079 161.148C77.1644 161.56 76.4578 157.869 78.2747 156.868C80.1673 155.83 81.967 157.02 81.8903 158.781C81.9367 160.206 80.9274 160.997 79.9079 161.149V161.148Z" fill="#1B1092"/>
<path d="M150.218 70.1475C149.792 68.1954 149.36 63.7854 147.082 61.0591C144.866 58.4064 140.67 57.7564 136.996 57.3072C137.099 59.2331 137.211 61.4285 137.344 63.9519C137.486 63.9741 137.604 63.9964 137.67 64.0186C139.888 64.7887 142.119 63.6855 143.409 73.6117C144.423 81.4072 145.955 140.853 144.433 143.252C143.07 145.398 144.45 144.259 22.5468 145.445C13.0656 145.538 13.86 144.963 13.5885 141.801C12.9263 134.134 13.2514 90.6955 14.0407 75.6759C14.6453 64.2023 16.652 65.0088 20.7491 64.2366C20.8076 61.5012 20.8712 58.9373 20.9368 56.638C11.2528 57.9461 10.0193 60.3444 8.40937 65.7184C5.67394 74.8543 5.52152 137.696 6.05347 144.786C6.17056 146.345 5.99392 150.682 7.39494 156.251C9.32286 163.916 11.8544 166.426 25.3468 167.161C30.7934 167.458 54.632 168.26 62.5657 168.468C64.5754 168.521 64.6652 168.306 64.5714 168.87C63.9425 172.637 63.3934 177.16 63.2037 181.548C63.1905 181.857 63.2673 182.461 62.3628 182.536C62.0409 182.563 55.71 182.713 52.3619 183.612C51.2808 183.904 50.7802 184.056 50.0746 185.778C49.7547 186.558 49.5982 187.105 49.4589 187.752C49.2247 188.83 49.794 189.788 51.4928 189.83C59.1671 190.022 103.517 189.856 106.18 189.636C108.201 189.471 109.336 188.961 108.434 186.281C107.215 182.653 105.278 182.954 97.1472 182.664C95.515 182.604 95.409 180.727 95.2657 179.64C94.8821 176.716 94.2664 171.392 93.7062 169.001C93.6618 168.809 93.4992 168.426 94.1654 168.419C98.3715 168.376 104.134 168.276 109.681 168.164C109.632 167.696 109.582 167.217 109.532 166.735C92.6645 167.062 73.3167 167.122 61.9995 167.006C53.4631 166.918 19.991 166.483 14.9532 164.324C13.3301 163.627 11.5213 162.281 10.5725 160.682C9.59539 159.033 8.70814 155.878 8.38211 153.728C8.34679 153.497 8.12371 152.689 8.72126 152.629C12.0805 152.294 32.7849 151.8 148.859 151.293C149.791 151.289 149.469 151.492 149.138 153.785C148.199 160.295 145.389 162.977 142.199 164.162C140.112 164.939 135.835 165.911 126.134 166.281C125.427 166.309 124.698 166.335 123.959 166.36C124.007 166.867 124.054 167.36 124.099 167.835C124.853 167.814 125.505 167.795 126.02 167.779C129.643 167.665 137.027 166.937 139.847 166.369C143.212 165.692 146.742 164.016 148.557 160.577C150.321 157.237 151.162 151.816 151.352 147.858C153.002 113.138 150.58 71.8241 150.216 70.1506L150.218 70.1475ZM101.763 184.234C102.764 184.249 105.963 184.154 106.713 185.526C106.936 185.934 107.086 186.378 107.203 186.832C107.271 187.104 107.908 188.386 105.528 188.386C79.8474 188.338 55.9189 188.599 52.0671 188.332C50.7085 188.239 51.0991 187.642 51.6896 185.924C51.8532 185.45 52.1903 185.172 52.6627 185.044C57.8267 183.639 93.7829 184.109 101.763 184.234Z" fill="#1B1092"/>
<path d="M152.146 189.451C153.002 189.488 153.06 190.431 152.433 190.53C151.705 190.645 109.58 190.297 109.553 190.296C3.65915 189.315 -0.440955 193.891 0.028408 191.066C0.480611 188.348 87.8497 186.642 152.145 189.451H152.146Z" fill="#1B1092"/>
<path d="M137.685 70.0765C136.345 47.2483 137.03 44.7996 132.669 42.2983C131.25 41.4848 128.842 40.8024 118.558 40.324C118.721 44.2121 118.846 48.4404 118.942 52.808C128.521 52.9503 134.804 53.1149 134.819 53.3218C136.22 71.956 136.556 97.7875 136.101 116.782C135.882 125.921 136.092 131.814 125.35 131.781C125.345 131.781 124.652 131.805 123.592 131.841C122.88 132.519 122.134 133.164 121.352 133.765C127.293 133.381 131.493 132.868 132.68 132.181C133.945 131.449 133.936 131.158 134.273 130.933C137.334 128.89 137.753 123.02 137.871 119.343C138.328 105.172 138.476 83.5639 137.685 70.0765Z" fill="#1B1092"/>
<path d="M69.378 132.624C28.5444 132.792 22.7607 134.552 22.5043 120.999C22.361 113.438 21.6392 57.8018 22.6547 51.6234C24.3131 51.7808 30.9205 51.911 40.1483 52.0281C40.1382 50.2102 40.1281 48.5367 40.119 47.0448C39.0935 48.0047 36.9142 47.5021 36.9526 45.6539C36.9718 44.7364 37.8176 43.9834 38.8169 43.944C39.3014 43.9248 39.7637 44.165 40.1029 44.5203C40.0867 42.0211 40.0726 40.3193 40.0635 39.6874C40.0463 39.6874 40.0231 39.6894 40.008 39.6905C27.532 40.4364 22.4134 38.888 21.4374 46.0253C20.753 51.0319 19.9889 100.495 20.6127 112.353C21.0064 119.851 20.0394 126.155 22.9686 129.837C27.4139 135.423 39.8384 134.562 47.217 134.7C50.4985 134.761 70.7951 134.948 90.8233 134.7C89.828 134.045 88.8762 133.322 87.9738 132.531C78.2736 132.591 69.3911 132.621 69.379 132.622L69.378 132.624ZM32.0086 46.1596C32.044 47.1609 31.0487 48.1228 30.0635 48.0481C28.8674 47.9563 28.1639 47.1791 28.1861 46.1535C28.2426 43.5423 32.1126 43.6381 32.0086 46.1596Z" fill="#1B1092"/>
<path d="M80.4227 121.192C61.6996 121.2 42.8333 121.029 42.162 120.977C41.944 120.96 41.9309 120.845 41.944 120.683C42.055 119.316 42.3296 97.6877 42.0127 85.5354C41.5584 68.1649 42.5022 33.6057 41.296 28.472C41.2455 28.258 41.4413 28.2802 42.4366 28.3266C59.1257 29.1059 84.8135 27.7361 103.073 28.0117C106.554 28.0642 114.235 28.255 116.26 27.7755C116.567 27.7028 116.507 28.0157 116.507 28.3599C116.506 34.6131 116.632 29.7872 117.283 50.4472C117.479 56.6711 117.619 70.3381 117.71 83.9506C117.873 83.9163 117.979 83.8951 117.991 83.8941C118.351 83.8749 118.777 83.8487 119.234 83.8285C119.23 66.7578 119.026 42.5004 117.909 29.4077C117.722 27.2264 117.362 27.8522 117.563 27.2506C117.853 26.3815 116.974 26.6813 105.009 26.3371C92.9652 25.9909 85.3373 26.3109 75.9895 26.5208C56.1965 26.964 42.8696 26.647 40.5723 27.2264C39.6689 27.4545 39.8425 28.9353 40.0605 39.5176C40.1291 42.8597 40.4966 121.522 40.4976 121.544C40.544 123.681 43.6983 122.204 53.7831 122.682C58.3969 122.901 69.4537 123.042 81.1222 123.027C80.8688 122.432 80.6397 121.817 80.4227 121.192Z" fill="#1B1092"/>
<path d="M97.3904 67.9972C95.5261 68.4161 89.1407 55.2164 88.3817 53.456C87.7902 52.0843 89.711 50.3168 90.8678 49.5911C91.759 49.0329 92.3071 48.3526 93.0379 49.0046C93.692 49.5881 93.8727 50.3481 94.763 51.9823C100.219 61.9954 94.8326 61.3453 107.643 42.2478C108.005 41.7078 108.303 41.2233 108.999 41.0608C109.756 40.8852 111.24 40.7439 111.975 40.9972C112.381 41.1365 112.533 41.4121 112.474 41.8461C112.011 45.2235 102.365 61.3635 100.895 63.8203C98.7379 67.4289 98.3029 68.0759 97.3894 67.9962L97.3904 67.9972Z" fill="#1B1092"/>
<path d="M87.6277 37.476C92.2971 37.5184 93.6093 37.2872 94.6661 37.8444C95.6078 38.341 95.8612 39.8057 94.5641 40.1034C92.4626 40.5859 67.3734 40.2377 67.2715 40.2427C65.6988 40.3124 64.7218 40.4234 63.9294 40.4234C50.1917 40.4204 49.5164 40.4961 48.5878 39.7643C48.0448 39.3363 47.6481 37.8374 50.4118 37.587C54.8611 37.1843 87.5974 37.475 87.6267 37.477L87.6277 37.476Z" fill="#1B1092"/>
<path d="M53.9971 75.5387C52.4002 75.5387 51.5372 75.7486 50.6086 75.5033C49.146 75.1178 49.0027 73.5451 49.7839 72.9244C50.3643 72.4631 50.7741 72.3278 52.6687 72.3218C52.6909 72.3218 81.4987 72.6619 81.5209 72.664C84.7015 72.7659 85.2536 72.995 85.7098 73.0717C86.2569 73.1646 86.6031 74.2184 85.9481 74.7746C84.0302 76.4037 78.8582 75.5367 53.9961 75.5377L53.9971 75.5387Z" fill="#1B1092"/>
<path d="M49.8192 48.0335C48.2194 47.6317 47.8297 44.8751 51.1425 44.866C51.1647 44.866 72.6363 44.8923 73.4812 44.8267C74.8822 44.7166 82.5706 44.544 84.9609 45.29C85.3999 45.4272 85.5332 45.9118 85.6028 46.3599C85.8501 47.9436 83.7698 47.9346 69.8464 47.9346C69.8464 47.9568 50.0756 48.0981 49.8192 48.0335Z" fill="#1B1092"/>
<path d="M85.5382 64.0532C86.4689 64.0996 87.1088 64.8678 86.6788 65.7429C86.1166 66.8855 85.3373 67.0743 71.1939 66.7775C66.795 66.6857 51.7542 67.3478 49.8152 66.1113C48.9219 65.542 48.9349 63.6101 51.6744 63.6121C58.0627 63.6171 79.8302 63.7685 85.5382 64.0532Z" fill="#1B1092"/>
<path d="M77.1513 55.2243C80.2037 55.5695 80.2774 57.7104 77.7751 58.0677C75.6947 58.3655 68.5836 58.0627 63.2601 57.9708C50.4844 57.7498 49.4245 57.9688 49.0833 56.8615C48.8905 56.2377 49.1247 55.6392 49.697 55.3414C51.9227 54.1826 72.7675 54.7297 77.1513 55.2243Z" fill="#1B1092"/>
<path d="M77.8972 82.6913C80.2107 82.9871 80.8072 84.2952 79.7726 84.9937C78.6088 85.78 76.914 85.6437 75.3384 85.6357C75.3101 85.6357 53.0876 85.349 50.5712 84.9957C49.9272 84.9049 49.5497 84.2902 49.7223 83.6563C50.225 81.8101 53.2299 82.6307 58.8461 82.2068C60.0129 82.119 72.5505 82.0049 77.8982 82.6903L77.8972 82.6913Z" fill="#1B1092"/>
<path d="M51.7775 99.6598C53.5045 99.7154 53.9194 100.875 54.4574 102.003C54.6825 102.475 54.521 101.709 56.7406 100.69C58.4455 99.9071 60.122 100.413 60.6338 102.823C62.4467 101.273 63.5883 100.662 65.5091 102.075C65.9553 102.403 69.0409 99.3863 72.3335 99.027C74.4573 98.7948 68.289 103.26 66.5629 104.517C66.1541 104.815 65.7201 105.071 65.169 105.092C63.2451 105.168 63.6599 102.186 61.3707 104.91C60.9296 105.435 60.7196 105.967 60.0453 106.061C58.7463 106.241 58.7856 104.866 58.5938 103.582C58.3839 102.177 56.6861 102.802 55.7373 103.673C54.5402 104.772 53.2704 106.426 52.7485 103.837C52.4598 102.407 52.4952 101.391 51.2597 101.97C48.4102 103.308 48.172 105.726 46.7861 105.495C45.2044 105.232 48.2174 99.7961 51.7775 99.6598Z" fill="#1B1092"/>
<path d="M105.629 139.145C94.3945 139.059 83.9878 132.358 80.2046 120.596C78.5634 115.493 79.0933 111.486 79.0862 111.445C78.9409 110.582 79.2336 109.758 79.2931 108.913C79.3951 107.471 80.1743 105.011 80.3671 104.369C81.6349 100.164 84.6287 95.4506 89.2588 91.7734C93.2468 88.606 97.3308 87.3564 101.301 86.5478C101.7 86.4661 101.695 86.3187 101.695 85.915C101.698 80.5662 100.976 80.65 100.846 77.8389C100.801 76.8416 101.228 75.3144 102.475 74.8703C104.543 74.1324 105.865 75.0671 107.434 76.5469C111.184 80.0848 109.955 86.0734 110.67 85.8534C112.008 85.4416 111.775 85.3134 114.95 84.5543C115.393 84.4483 117.925 83.8982 117.992 83.8952C119.377 83.8225 121.695 83.6317 123.226 84.1243C124.913 84.6684 126.117 85.8796 125.704 87.6299C125.388 88.9663 124.651 89.6063 123.842 90.6257C123.529 91.0204 124.499 90.6187 126.12 91.513C127.505 92.2761 128.443 93.7296 127.554 95.4768C127.011 96.545 126.488 96.5894 126.88 97.1708C128.016 98.8524 128.488 99.1229 129.08 100.738C129.671 102.353 131.022 103.79 131.83 110.543C133.5 124.478 121.379 139.266 105.63 139.146L105.629 139.145ZM101.738 112.677C104.914 112.079 106.701 112.873 115.473 111.585C118.707 111.11 126.259 108.646 124.683 105.794C124.117 104.768 124.002 104.467 124.575 103.879C125.905 102.516 126.366 102.331 126.905 100.881C127.571 99.0876 124.152 99.4368 124.212 97.9319C124.3 95.6908 127.178 93.8467 124.984 92.9534C123.7 92.4305 123.394 92.5799 122.025 92.265C119.727 91.7361 125.409 87.0858 123.175 86.0845C120.12 84.7148 111.416 87.4129 110.511 87.4321C108.187 87.4815 109.436 84.6906 108.003 80.4774C107.352 78.5626 105.491 76.6953 104.099 76.4631C101.914 76.0987 102.515 78.1377 103.285 84.3908C103.608 87.0142 102.798 89.8374 101.858 91.5826C101.03 93.1169 99.6988 94.6814 97.4317 96.1261C96.9816 96.4127 96.9886 96.3552 97.2622 97.1587C99.6524 104.177 98.6844 101.211 99.614 105.406C100.875 111.097 100.946 110.788 101.166 112.295C101.216 112.63 101.297 112.681 101.74 112.677H101.738ZM94.0059 95.7554C92.3051 96.0009 91.3966 96.0605 88.8197 97.2909C87.9748 97.6947 88.0556 98.7252 88.2797 99.6952C88.4513 100.441 91.8721 114.245 92.3667 115.29C92.5867 115.756 92.938 116.008 93.4921 116.007C95.1556 116.005 99.9209 114.987 99.4566 112.802C99.397 112.524 99.4899 110.42 97.0986 101.041C95.6098 95.1993 95.0203 95.8766 94.0059 95.7554ZM106.418 130.842C108.163 131.549 110.104 133.281 110.845 132.613C111.035 132.442 110.962 132.459 110.325 130.806C109.52 128.722 109.378 128.561 109.643 128.314C110.02 127.965 110.125 127.984 112.032 126.225C112.49 125.804 112.648 125.158 112.008 125.151C111.47 125.145 111.431 125.263 110.659 125.201C110.571 125.194 110.469 125.131 110.396 125.157C109.914 125.33 109.415 125.232 108.925 125.248C107.938 125.279 107.956 125.426 107.456 124.262C106.447 121.909 106.466 121.908 106.306 121.74C105.974 121.393 105.671 121.714 105.512 122.185C103.789 127.288 105.329 125.254 101.164 126.635C100.597 126.822 100.165 127.007 100.527 127.515C101.155 128.397 103.092 128.593 103.509 129.103C103.71 129.349 102.766 130.99 102.497 132.654C102.448 132.955 102.569 133.068 102.889 133.104C103.602 133.182 105.376 131.284 106.419 130.841L106.418 130.842ZM116.133 125.561C116.129 125.865 116.402 126.068 116.819 125.762C118.652 124.412 118.727 124.185 119.234 124.476C121.397 125.716 122.447 126.39 121.756 124.641C120.544 121.576 120.873 123.423 122.976 120.867C123.19 120.607 123.086 120.396 122.76 120.398C119.431 120.416 120.14 120.865 119.357 119.138C118.64 117.556 118.539 116.932 117.566 120.463C117.273 121.526 112.004 121.142 116.357 122.832C117.124 123.13 116.836 122.92 116.133 125.561ZM96.0943 122.276C93.3145 122.099 93.5113 122.955 92.8845 121.537C91.8388 119.17 91.8832 119.077 90.897 122.345C90.7113 122.96 90.6012 122.72 88.9782 123.167C87.1673 123.666 88.1373 124.186 89.9048 124.82C90.2621 124.948 90.1279 125.261 90.0501 125.514C89.4778 127.386 89.3446 127.556 89.5828 127.733C90.251 128.228 91.7651 125.929 92.4373 126.345C92.4615 126.36 94.559 127.461 94.6166 127.49C94.8043 127.584 95.0244 127.724 95.2161 127.547C95.4079 127.37 95.3151 127.156 95.2252 126.945C93.798 123.583 94.1926 125.274 96.3678 122.679C96.4587 122.571 96.4072 122.296 96.0943 122.276Z" fill="#FE7265"/>
<path d="M113.976 163.45C112.824 163.338 111.873 163.408 111.854 162.722C111.839 162.186 112.513 161.996 112.886 161.984C119.841 161.751 119.046 161.683 120.093 161.88C120.409 161.939 120.521 162.328 120.294 162.544C119.453 163.344 116.876 163.197 113.977 163.45H113.976Z" fill="#1B1092"/>
<path d="M120.355 167.992C120.677 168.076 120.901 168.246 121.161 168.581C121.843 169.459 118.009 169.367 117.409 169.39C116.667 169.419 115.927 169.539 115.184 169.569C112.978 169.657 112.846 168.565 113.641 168.268C114.899 167.796 120.086 167.922 120.355 167.992Z" fill="#1B1092"/>
<path d="M113.191 166.226C112.376 165.856 112.558 165.169 113.266 164.979C114.023 164.776 118.179 164.677 118.13 165.46C118.08 166.256 114.026 166.603 113.191 166.225V166.226Z" fill="#1B1092"/>
<path d="M123.878 159.729C123.99 158.721 121.023 158.998 119.938 159C110.179 159.028 111.221 159.465 109.341 159.69C108.807 159.754 108.545 160.043 108.487 160.667C108.426 161.355 109.301 170.013 109.405 171.245C109.507 172.443 109.806 173.532 110.918 173.552C112.252 173.576 113.583 173.556 114.91 173.358C116 173.195 117.923 173.252 118.42 173.211C120.193 173.058 122.066 172.682 122.575 172.725C123.424 172.798 124.849 172.747 124.878 171.839C124.969 169.05 123.817 160.252 123.877 159.73L123.878 159.729ZM123.436 171.569C122.56 171.561 121.713 171.86 120.829 171.816C120.403 171.794 119.858 171.994 119.541 172.006C114.585 172.195 119.353 171.886 111.119 172.22C110.888 172.229 110.704 172.091 110.656 171.913C110.613 171.756 110.179 166.848 109.546 161.13C109.526 160.948 109.593 160.804 109.794 160.764C110.818 160.563 121.135 159.897 122.638 160.103C122.958 160.145 122.865 160.442 122.893 160.853C123.079 163.392 123.829 170.342 123.766 170.349C123.766 171.373 123.842 171.571 123.436 171.569Z" fill="#1B1092"/>
</svg>
